<?xml version="1.0" encoding="UTF-8"?><svg id="Black_Syntra_Logo_no_words_x5F_Square" xmlns="http://www.w3.org/2000/svg" viewBox="0 0 715.95 430.65"><defs><style>.cls-1,.cls-2{fill:#010101;}.cls-2{fill-rule:evenodd;}</style></defs><path class="cls-2" d="M352.27,52.57c-26.75,3.69-56.02,25.51-67.38,50.22-22.26,48.37-1.73,100.42,47.79,121.13,5.47,2.29,10.94,4.81,12.15,5.6,4.3,2.83,4.96,1.86,5.21-7.74.28-10.47.53-10.14-10.88-14.28-40.99-14.83-60.86-59.53-42.69-96.02,5.56-11.17,7.46-13.24,5.28-5.75-11.99,41.33,7.19,75.32,47.59,84.39,4.62,1.03,8.73,2.41,9.14,3.06s.75,13.42.76,28.4c.01,23.64.19,27.39,1.31,28.51,1.84,1.84,7.89,1.68,10.31-.28l1.94-1.57.41-27.52c.47-31.17-.25-28.67,8.61-30.03,41.02-6.33,62.44-46.02,48.02-89.01-1.6-4.76.33-2.61,4.73,5.28,20.81,37.31,1.79,84.99-40.04,100.32-11.46,4.2-11.83,4.62-12.13,13.56-.29,8.77.32,10.02,4.1,8.51,1.49-.59,6.48-2.49,11.11-4.19,74.97-27.78,79.87-128.29,8.01-164.36-14.68-7.37-35.87-10.64-53.33-8.22M375.66,76.13c43.11,7.83,60.95,56.04,31.64,85.48-11.82,11.87-34.1,20.63-34.1,13.4,0-4.05,1.3-5.48,6.31-6.93,50.47-14.67,39.33-83.28-13.52-83.28s-63.22,67.37-13.3,83.26c6.29,2.01,10.11,9.46,4.84,9.46-11.55,0-30.64-11.43-38.56-23.09-25.03-36.86,10.98-86.59,56.7-78.31M378.12,100.33c29.06,11.08,25.88,49.81-4.52,55.1-29.29,5.1-50.08-21.67-34.15-43.95,8.01-11.21,25.37-16.21,38.67-11.14"/><path class="cls-1" d="M82.64,290.98c16.72,0,31.41,4.15,44.1,12.46l-10.71,22.23c-5.86-3.4-12.15-6.19-18.88-8.37-6.71-2.2-12.35-3.29-16.92-3.29-8.21,0-12.32,2.72-12.32,8.13,0,3.52,2.02,6.35,6.05,8.49,4.05,2.14,8.98,3.98,14.78,5.52,5.82,1.54,11.62,3.41,17.42,5.61,5.82,2.18,10.75,5.72,14.81,10.62,4.05,4.89,6.08,11.06,6.08,18.52,0,10.77-4.21,19.16-12.64,25.17-8.41,6.02-19.11,9.02-32.11,9.02-9.28,0-18.45-1.59-27.51-4.78-9.04-3.21-16.92-7.58-23.62-13.12l11.01-21.9c5.65,4.91,12.32,8.93,19.97,12.08,7.67,3.15,14.5,4.72,20.48,4.72,4.57,0,8.13-.82,10.68-2.46,2.57-1.66,3.86-4.1,3.86-7.3s-1.48-5.67-4.42-7.75c-2.93-2.08-6.58-3.62-10.95-4.63-4.36-1.01-9.1-2.36-14.22-4.07-5.1-1.7-9.85-3.56-14.22-5.58-4.38-2.03-8.03-5.26-10.95-9.68-2.93-4.43-4.39-9.73-4.39-15.91,0-10.22,4.07-18.41,12.23-24.54,8.15-6.13,18.94-9.2,32.38-9.2Z"/><path class="cls-1" d="M200.26,368.02v36.12h-28.28v-35.32l-41.4-76.54h28.46l27.01,48.73,26.35-48.73h28.46l-40.6,75.74Z"/><path class="cls-1" d="M354.49,404.14h-25.11l-51.46-68.88v68.88h-26.68v-111.86h25.08l51.64,69.03v-69.03h26.53v111.86Z"/><path class="cls-1" d="M462.36,315.14h-33.71v89.01h-28.46v-89.01h-33.39v-23.03h95.56v23.03Z"/><path class="cls-1" d="M541.93,404.14l-16.62-31.49h-22.38v31.49h-28.43v-111.86h50.01c14.82,0,26.27,3.38,34.37,10.15,8.09,6.75,12.14,16.35,12.14,28.82,0,17.27-6.76,29.26-20.27,35.97l23.48,36.92h-32.29ZM502.93,350.28h21.58c6.19,0,10.99-1.54,14.39-4.63,3.4-3.09,5.1-7.55,5.1-13.41s-1.71-10.13-5.1-13.12c-3.41-2.98-8.21-4.48-14.39-4.48h-21.58v35.64Z"/><path class="cls-1" d="M664.53,383.52h-48.91l-8.13,20.63h-29.26l48.26-111.86h29.26l47.13,111.86h-30.36l-7.98-20.63ZM656.22,361.94l-16-41.37-16.29,41.37h32.29Z"/></svg>