<?xml version="1.0" encoding="UTF-8"?><svg id="White_Syntra_Logo_no_words_x5F_Square" xmlns="http://www.w3.org/2000/svg" viewBox="0 0 715.95 430.65"><defs><style>.cls-1{fill-rule:evenodd;}.cls-1,.cls-2{fill:#fff;}</style></defs><path class="cls-1" d="M341.03.83c-28.41,3.93-59.51,27.1-71.58,53.35-23.64,51.39-1.83,106.67,50.76,128.67,5.82,2.43,11.62,5.11,12.91,5.96,4.58,3,5.27,1.98,5.54-8.23.3-11.11.56-10.77-11.56-15.16-43.54-15.76-64.65-63.24-45.36-102.01,5.9-11.86,7.93-14.06,5.62-6.1-12.74,43.89,7.63,80.01,50.55,89.64,4.9,1.09,9.28,2.56,9.71,3.24.43.69.79,14.26.8,30.17,0,25.12.19,29.1,1.38,30.29,1.96,1.96,8.38,1.79,10.96-.3l2.06-1.66.43-29.24c.5-33.1-.27-30.45,9.15-31.91,43.57-6.71,66.32-48.88,51.01-94.54-1.7-5.06.35-2.78,5.03,5.6,22.11,39.63,1.9,90.28-42.52,106.57-12.18,4.46-12.58,4.9-12.89,14.39-.31,9.32.34,10.66,4.35,9.04,1.58-.63,6.89-2.64,11.8-4.45,79.63-29.51,84.84-136.28,8.51-174.59-15.6-7.83-38.12-11.3-56.66-8.74M365.87,25.86c45.8,8.31,64.76,59.52,33.61,90.8-12.55,12.61-36.23,21.91-36.23,14.24,0-4.31,1.38-5.82,6.71-7.36,53.61-15.59,41.78-88.46-14.36-88.46s-67.15,71.56-14.14,88.45c6.69,2.13,10.74,10.05,5.14,10.05-12.27,0-32.54-12.14-40.96-24.53-26.59-39.16,11.66-91.99,60.22-83.18M368.49,51.57c30.86,11.77,27.49,52.91-4.8,58.54-31.11,5.41-53.2-23.02-36.28-46.7,8.51-11.9,26.96-17.22,41.08-11.84"/><path class="cls-2" d="M54.59,253.42c17.73,0,33.32,4.41,46.78,13.22l-11.36,23.58c-6.22-3.6-12.89-6.56-20.02-8.88-7.11-2.33-13.1-3.49-17.94-3.49-8.71,0-13.06,2.88-13.06,8.63,0,3.74,2.14,6.74,6.42,9,4.3,2.27,9.52,4.22,15.68,5.86,6.17,1.64,12.33,3.62,18.48,5.95,6.17,2.31,11.4,6.07,15.71,11.27,4.3,5.19,6.45,11.73,6.45,19.64,0,11.42-4.47,20.32-13.41,26.7-8.93,6.38-20.27,9.57-34.06,9.57-9.85,0-19.57-1.68-29.18-5.07-9.59-3.4-17.94-8.04-25.06-13.91l11.68-23.23c6,5.21,13.06,9.48,21.19,12.81,8.14,3.34,15.38,5.01,21.72,5.01,4.85,0,8.63-.87,11.33-2.61,2.72-1.76,4.09-4.34,4.09-7.74s-1.57-6.01-4.69-8.22c-3.11-2.2-6.98-3.84-11.62-4.91-4.62-1.07-9.65-2.5-15.08-4.31-5.41-1.8-10.44-3.78-15.08-5.92-4.64-2.16-8.52-5.58-11.62-10.26-3.11-4.7-4.66-10.33-4.66-16.87,0-10.85,4.32-19.53,12.97-26.04,8.64-6.5,20.09-9.76,34.35-9.76Z"/><path class="cls-2" d="M179.35,335.15v38.31h-30v-37.46l-43.92-81.19h30.19l28.65,51.69,27.96-51.69h30.19l-43.07,80.34Z"/><path class="cls-2" d="M342.95,373.46h-26.63l-54.59-73.07v73.07h-28.3v-118.65h26.6l54.78,73.23v-73.23h28.14v118.65Z"/><path class="cls-2" d="M457.37,279.05h-35.76v94.41h-30.19v-94.41h-35.42v-24.43h101.37v24.43Z"/><path class="cls-2" d="M541.78,373.46l-17.63-33.4h-23.74v33.4h-30.16v-118.65h53.05c15.72,0,27.87,3.59,36.46,10.77,8.58,7.16,12.88,17.35,12.88,30.57,0,18.32-7.17,31.04-21.5,38.16l24.9,39.16h-34.25ZM500.42,316.32h22.89c6.56,0,11.66-1.64,15.27-4.91,3.6-3.27,5.41-8.01,5.41-14.23s-1.81-10.74-5.41-13.91c-3.61-3.16-8.7-4.75-15.27-4.75h-22.89v37.81Z"/><path class="cls-2" d="M671.83,351.58h-51.88l-8.63,21.88h-31.04l51.19-118.65h31.04l49.99,118.65h-32.21l-8.47-21.88ZM663.01,328.7l-16.97-43.89-17.28,43.89h34.25Z"/></svg>