<?xml version="1.0" encoding="UTF-8"?><svg id="Black_Syntra_Logo_no_words" xmlns="http://www.w3.org/2000/svg" viewBox="0 0 792 269.94"><defs><style>.cls-1,.cls-2{fill:#010101;}.cls-2{fill-rule:evenodd;}</style></defs><path class="cls-1" d="M237.45,100.87c13.6,0,25.56,3.39,35.86,10.15l-8.72,18.06c-4.77-2.78-9.88-5.06-15.36-6.84-5.45-1.76-10.02-2.65-13.72-2.65-6.67,0-10,2.22-10,6.63,0,2.86,1.63,5.15,4.9,6.89,3.29,1.73,7.31,3.24,12.04,4.49,4.72,1.26,9.44,2.78,14.13,4.54,4.72,1.77,8.74,4.64,12.04,8.62,3.29,3.98,4.95,9,4.95,15.05,0,8.77-3.42,15.61-10.25,20.51-6.84,4.87-15.55,7.29-26.12,7.29-7.52,0-14.97-1.29-22.34-3.88-7.35-2.58-13.76-6.13-19.23-10.66l8.98-17.8c4.59,3.98,10,7.27,16.22,9.85,6.25,2.55,11.8,3.83,16.63,3.83,3.74,0,6.64-.66,8.72-1.99,2.07-1.35,3.11-3.34,3.11-5.97,0-2.47-1.2-4.57-3.57-6.27-2.38-1.7-5.36-2.96-8.93-3.78-3.55-.82-7.38-1.91-11.53-3.32-4.16-1.39-8.01-2.91-11.58-4.54-3.55-1.63-6.5-4.25-8.88-7.86-2.38-3.6-3.57-7.91-3.57-12.91,0-8.33,3.29-14.97,9.9-19.95,6.63-5,15.41-7.5,26.32-7.5Z"/><path class="cls-1" d="M333.03,163.51v29.33h-22.96v-28.72l-33.67-62.19h23.11l21.99,39.59,21.43-39.59h23.11l-33.01,61.57Z"/><path class="cls-1" d="M458.39,192.84h-20.41l-41.83-55.96v55.96h-21.68v-90.91h20.41l41.93,56.12v-56.12h21.58v90.91Z"/><path class="cls-1" d="M546.04,120.51h-27.39v72.34h-23.11v-72.34h-27.14v-18.72h77.64v18.72Z"/><path class="cls-1" d="M610.75,192.84l-13.52-25.61h-18.21v25.61h-23.11v-90.91h40.66c12.04,0,21.34,2.75,27.9,8.26,6.59,5.48,9.9,13.29,9.9,23.42,0,14.02-5.5,23.76-16.48,29.23l19.08,30h-26.22ZM579.02,149.07h17.55c5.02,0,8.93-1.25,11.68-3.78,2.78-2.51,4.18-6.15,4.18-10.92s-1.4-8.19-4.18-10.61c-2.75-2.45-6.66-3.67-11.68-3.67h-17.55v28.98Z"/><path class="cls-1" d="M710.35,176.11h-39.74l-6.63,16.73h-23.77l39.23-90.91h23.77l38.31,90.91h-24.69l-6.48-16.73ZM703.61,158.56l-13.01-33.67-13.26,33.67h26.27Z"/><path class="cls-2" d="M104.07,79.7c-17.7,2.45-37.09,16.9-44.61,33.26-14.74,32.02-1.15,66.48,31.64,80.19,3.62,1.52,7.24,3.19,8.05,3.71,2.86,1.87,3.28,1.24,3.46-5.13.18-6.93.34-6.71-7.21-9.45-27.14-9.82-40.3-39.42-28.27-63.58,3.67-7.4,4.94-8.77,3.49-3.81-7.93,27.37,4.76,49.88,31.51,55.89,3.06.68,5.78,1.59,6.06,2.02.27.43.5,8.89.5,18.81,0,15.65.11,18.14.87,18.88,1.21,1.22,5.22,1.11,6.82-.18l1.29-1.05.27-18.22c.31-20.64-.17-18.98,5.7-19.88,27.16-4.18,41.33-30.47,31.79-58.93-1.06-3.15.22-1.72,3.14,3.49,13.77,24.7,1.19,56.28-26.51,66.43-7.59,2.78-7.83,3.05-8.03,8.97-.18,5.82.22,6.64,2.72,5.64.98-.4,4.3-1.65,7.36-2.78,49.64-18.39,52.88-84.94,5.31-108.83-9.73-4.87-23.76-7.04-35.33-5.45M119.56,95.31c28.54,5.18,40.35,37.1,20.94,56.6-7.82,7.86-22.57,13.66-22.57,8.86,0-2.68.85-3.62,4.17-4.58,33.41-9.72,26.04-55.15-8.95-55.15s-41.86,44.61-8.8,55.13c4.16,1.33,6.68,6.26,3.2,6.26-7.65,0-20.29-7.56-25.53-15.29-16.58-24.41,7.27-57.34,37.55-51.84M121.18,111.33c19.25,7.33,17.14,32.98-2.98,36.49-19.4,3.38-33.16-14.35-22.61-29.1,5.31-7.42,16.8-10.74,25.6-7.38"/></svg>