<?xml version="1.0" encoding="UTF-8"?><svg id="White_Syntra_w_x2F__Words" xmlns="http://www.w3.org/2000/svg" viewBox="0 0 792 269.94"><defs><style>.cls-1{fill-rule:evenodd;}.cls-1,.cls-2{fill:#fff;}</style></defs><path class="cls-2" d="M233.83,64.52c14.14,0,26.58,3.53,37.29,10.56l-9.07,18.78c-4.96-2.89-10.28-5.27-15.97-7.11-5.66-1.83-10.42-2.76-14.27-2.76-6.94,0-10.4,2.31-10.4,6.9,0,2.97,1.7,5.36,5.09,7.16,3.42,1.8,7.6,3.37,12.52,4.67,4.91,1.31,9.81,2.89,14.69,4.72,4.91,1.84,9.08,4.83,12.52,8.97,3.42,4.14,5.15,9.36,5.15,15.65,0,9.12-3.55,16.23-10.66,21.33-7.11,5.07-16.17,7.59-27.16,7.59-7.82,0-15.57-1.34-23.24-4.03-7.64-2.68-14.31-6.38-20-11.09l9.34-18.51c4.77,4.14,10.4,7.56,16.87,10.24,6.5,2.65,12.27,3.98,17.29,3.98,3.89,0,6.91-.69,9.07-2.07,2.15-1.41,3.24-3.47,3.24-6.21,0-2.57-1.25-4.75-3.71-6.52-2.48-1.76-5.57-3.08-9.28-3.93-3.69-.85-7.68-1.99-11.99-3.45-4.32-1.45-8.33-3.02-12.04-4.72-3.69-1.7-6.76-4.42-9.23-8.17-2.48-3.74-3.71-8.22-3.71-13.42,0-8.66,3.42-15.57,10.29-20.74,6.9-5.2,16.02-7.8,27.37-7.8Z"/><path class="cls-2" d="M333.22,129.67v30.5h-23.87v-29.87l-35.01-64.67h24.03l22.86,41.17,22.28-41.17h24.03l-34.32,64.03Z"/><path class="cls-2" d="M463.58,160.17h-21.22l-43.5-58.19v58.19h-22.55v-94.53h21.22l43.61,58.35v-58.35h22.44v94.53Z"/><path class="cls-2" d="M554.72,84.95h-28.49v75.22h-24.03v-75.22h-28.22v-19.47h80.74v19.47Z"/><path class="cls-2" d="M622.02,160.17l-14.06-26.63h-18.94v26.63h-24.03v-94.53h42.28c12.52,0,22.19,2.86,29.02,8.59,6.86,5.7,10.29,13.82,10.29,24.35,0,14.57-5.72,24.71-17.13,30.4l19.84,31.19h-27.27ZM589.03,114.65h18.25c5.23,0,9.28-1.3,12.15-3.93,2.89-2.61,4.35-6.39,4.35-11.35s-1.46-8.51-4.35-11.03c-2.86-2.55-6.92-3.82-12.15-3.82h-18.25v30.13Z"/><path class="cls-2" d="M725.59,142.77h-41.32l-6.9,17.4h-24.72l40.79-94.53h24.72l39.84,94.53h-25.68l-6.74-17.4ZM718.59,124.52l-13.53-35.01-13.79,35.01h27.32Z"/><path class="cls-1" d="M89.52,56.12c-18.47,2.55-38.67,17.61-46.52,34.67-15.37,33.39-1.19,69.32,33,83.62,3.78,1.58,7.55,3.33,8.38,3.87,2.98,1.95,3.42,1.29,3.61-5.34.19-7.23.36-7-7.52-9.85-28.29-10.24-42.01-41.1-29.48-66.3,3.85-7.71,5.16-9.14,3.66-3.97-8.28,28.53,4.96,52,32.85,58.26,3.2.72,6.03,1.66,6.31,2.11s.52,9.27.52,19.6c.01,16.33.13,18.92.9,19.69,1.27,1.27,5.45,1.15,7.12-.2l1.34-1.07.28-19c.32-21.51-.17-19.79,5.95-20.73,28.31-4.38,43.1-31.78,33.14-61.46-1.1-3.28.24-1.8,3.28,3.65,14.36,25.75,1.23,58.67-27.64,69.25-7.92,2.9-8.18,3.2-8.38,9.36-.2,6.06.23,6.92,2.82,5.88,1.03-.41,4.48-1.71,7.67-2.89,51.76-19.18,55.14-88.58,5.53-113.47-10.13-5.09-24.76-7.35-36.82-5.68M105.66,72.38c29.76,5.4,42.09,38.69,21.84,59.02-8.16,8.2-23.54,14.24-23.54,9.26,0-2.8.9-3.78,4.36-4.79,34.84-10.13,27.15-57.49-9.34-57.49s-43.65,46.51-9.19,57.48c4.35,1.39,6.98,6.54,3.34,6.54-7.97,0-21.15-7.89-26.62-15.95-17.28-25.44,7.59-59.77,39.14-54.06M107.36,89.09c20.07,7.65,17.88,34.39-3.12,38.04-20.21,3.53-34.57-14.95-23.58-30.34,5.53-7.73,17.52-11.19,26.7-7.69"/><path class="cls-2" d="M190.6,173.32v12.47c0,1.78.42,3.08,1.27,3.93s2.03,1.27,3.55,1.27,2.71-.42,3.55-1.27c.88-.85,1.33-2.15,1.33-3.93v-12.47h2.55v12.47c0,1.63-.34,3.01-1.01,4.14-.64,1.14-1.53,1.99-2.65,2.55-1.14.53-2.39.8-3.77.8s-2.69-.27-3.82-.8c-1.1-.56-1.99-1.41-2.65-2.55-.64-1.13-.95-2.51-.95-4.14v-12.47h2.6Z"/><path class="cls-2" d="M214.75,177.25c1.87,0,3.4.58,4.56,1.75,1.17,1.14,1.75,2.79,1.75,4.93v9.12h-2.55v-8.81c0-1.51-.4-2.68-1.17-3.5-.78-.85-1.83-1.27-3.13-1.27-1.38,0-2.48.42-3.29,1.27-.78.85-1.17,2.1-1.17,3.71v8.59h-2.6v-15.54h2.6v2.23c.49-.77,1.18-1.38,2.07-1.8.88-.45,1.86-.69,2.92-.69Z"/><path class="cls-2" d="M226.61,175.02c-.5,0-.93-.16-1.27-.48-.32-.34-.48-.77-.48-1.27s.16-.9.48-1.22c.34-.34.77-.53,1.27-.53s.9.19,1.22.53c.32.32.48.73.48,1.22s-.16.93-.48,1.27c-.32.32-.73.48-1.22.48ZM227.88,177.51v15.54h-2.6v-15.54h2.6Z"/><path class="cls-2" d="M238.56,179.63h-3.24v13.42h-2.6v-13.42h-2.02v-2.12h2.02v-1.06c0-1.76.44-3.04,1.33-3.82.92-.81,2.36-1.22,4.35-1.22v2.17c-1.14,0-1.94.24-2.39.69-.46.42-.69,1.15-.69,2.17v1.06h3.24v2.12Z"/><path class="cls-2" d="M242.89,175.02c-.5,0-.93-.16-1.27-.48-.32-.34-.48-.77-.48-1.27s.16-.9.48-1.22c.34-.34.77-.53,1.27-.53s.9.19,1.22.53c.32.32.48.73.48,1.22s-.16.93-.48,1.27c-.32.32-.73.48-1.22.48ZM244.16,177.51v15.54h-2.6v-15.54h2.6Z"/><path class="cls-2" d="M262.69,184.67c0,.5-.03,1.03-.05,1.59h-12.41c.07,1.53.58,2.73,1.54,3.61.95.85,2.12,1.27,3.5,1.27,1.09,0,2.02-.27,2.76-.8s1.27-1.22,1.59-2.07h2.76c-.42,1.49-1.26,2.71-2.49,3.66-1.25.93-2.79,1.38-4.62,1.38-1.49,0-2.81-.33-3.98-1.01-1.17-.66-2.1-1.6-2.76-2.81-.64-1.19-.95-2.61-.95-4.24s.32-2.98.95-4.19c.64-1.23,1.54-2.17,2.71-2.81s2.51-.95,4.03-.95c1.45,0,2.73.32,3.87.95,1.13.64,1.99,1.53,2.6,2.65.64,1.1.95,2.36.95,3.77ZM260.04,184.14c0-.95-.24-1.78-.69-2.49-.42-.7-1.01-1.23-1.75-1.59-.74-.38-1.56-.58-2.44-.58-1.31,0-2.43.42-3.34,1.27-.93.82-1.46,1.95-1.59,3.4h9.81Z"/><path class="cls-2" d="M265.13,185.26c0-1.59.32-2.98.95-4.19.64-1.19,1.51-2.12,2.65-2.76,1.13-.66,2.39-1.01,3.77-1.01,1.23,0,2.36.29,3.4.85,1.02.53,1.82,1.26,2.39,2.17v-8.22h2.6v20.95h-2.6v-2.92c-.53.93-1.3,1.68-2.28,2.28-.99.61-2.16.9-3.5.9s-2.64-.33-3.77-1.01c-1.14-.7-2.02-1.66-2.65-2.86-.64-1.23-.95-2.63-.95-4.19ZM278.28,185.26c0-1.17-.25-2.17-.74-3.02-.46-.88-1.1-1.55-1.91-2.02-.78-.45-1.67-.69-2.65-.69s-1.84.24-2.65.69c-.78.42-1.41,1.09-1.86,1.96-.46.89-.69,1.91-.69,3.08s.23,2.2.69,3.08c.45.89,1.07,1.56,1.86,2.02.81.46,1.7.69,2.65.69s1.87-.23,2.65-.69c.81-.45,1.45-1.13,1.91-2.02.49-.88.74-1.91.74-3.08Z"/><path class="cls-2" d="M304.93,173.32v2.07h-5.36v17.67h-2.6v-17.67h-5.41v-2.07h13.37Z"/><path class="cls-2" d="M310.7,180.06c.45-.88,1.09-1.56,1.91-2.07.85-.49,1.87-.74,3.08-.74v2.65h-.69c-2.86,0-4.3,1.58-4.3,4.72v8.43h-2.6v-15.54h2.6v2.55Z"/><path class="cls-2" d="M317.7,185.26c0-1.59.32-2.98.95-4.19.64-1.19,1.51-2.12,2.65-2.76,1.13-.66,2.39-1.01,3.77-1.01s2.51.31,3.5.9c1.02.57,1.78,1.3,2.28,2.17v-2.86h2.6v15.54h-2.6v-2.86c-.53.89-1.31,1.63-2.33,2.23-.99.61-2.16.9-3.5.9s-2.64-.33-3.77-1.01c-1.1-.7-1.96-1.66-2.6-2.86-.64-1.23-.95-2.63-.95-4.19ZM330.86,185.26c0-1.17-.25-2.17-.74-3.02-.46-.88-1.1-1.55-1.91-2.02-.78-.45-1.67-.69-2.65-.69s-1.84.24-2.65.69c-.78.42-1.41,1.09-1.86,1.96-.46.89-.69,1.91-.69,3.08s.23,2.2.69,3.08c.45.89,1.07,1.56,1.86,2.02.81.46,1.7.69,2.65.69s1.87-.23,2.65-.69c.81-.45,1.45-1.13,1.91-2.02.49-.88.74-1.91.74-3.08Z"/><path class="cls-2" d="M336.84,185.26c0-1.59.32-2.98.95-4.19.64-1.19,1.51-2.12,2.65-2.76,1.17-.66,2.49-1.01,3.98-1.01,1.87,0,3.42.46,4.67,1.38,1.23.93,2.07,2.2,2.49,3.82h-2.81c-.25-.92-.77-1.64-1.54-2.17-.74-.56-1.68-.85-2.81-.85-1.49,0-2.69.52-3.61,1.54-.89.99-1.33,2.41-1.33,4.24s.44,3.33,1.33,4.35c.92,1.03,2.12,1.54,3.61,1.54,1.13,0,2.07-.27,2.81-.8s1.25-1.29,1.54-2.28h2.81c-.42,1.59-1.27,2.86-2.55,3.82-1.25.95-2.79,1.43-4.62,1.43-1.49,0-2.81-.33-3.98-1.01-1.14-.66-2.02-1.6-2.65-2.81-.64-1.19-.95-2.61-.95-4.24Z"/><path class="cls-2" d="M363.69,193.05l-6.1-6.84v6.84h-2.6v-20.95h2.6v12.31l5.94-6.9h3.61l-7.32,7.75,7.37,7.8h-3.5Z"/><path class="cls-2" d="M370.89,175.02c-.5,0-.93-.16-1.27-.48-.32-.34-.48-.77-.48-1.27s.16-.9.48-1.22c.34-.34.77-.53,1.27-.53s.9.19,1.22.53c.32.32.48.73.48,1.22s-.16.93-.48,1.27c-.32.32-.73.48-1.22.48ZM372.17,177.51v15.54h-2.6v-15.54h2.6Z"/><path class="cls-2" d="M384.12,177.25c1.87,0,3.4.58,4.56,1.75,1.17,1.14,1.75,2.79,1.75,4.93v9.12h-2.55v-8.81c0-1.51-.4-2.68-1.17-3.5-.78-.85-1.83-1.27-3.13-1.27-1.38,0-2.48.42-3.29,1.27-.78.85-1.17,2.1-1.17,3.71v8.59h-2.6v-15.54h2.6v2.23c.49-.77,1.18-1.38,2.07-1.8.88-.45,1.86-.69,2.92-.69Z"/><path class="cls-2" d="M401.07,177.3c1.34,0,2.51.31,3.5.9,1.02.57,1.78,1.3,2.28,2.17v-2.86h2.6v15.86c0,1.41-.31,2.67-.9,3.77-.61,1.13-1.47,1.99-2.6,2.6-1.14.64-2.44.95-3.93.95-2.06,0-3.77-.48-5.15-1.43-1.35-.95-2.15-2.27-2.39-3.93h2.6c.28.92.86,1.66,1.75,2.23.88.6,1.94.9,3.18.9,1.41,0,2.56-.45,3.45-1.33.92-.89,1.38-2.15,1.38-3.77v-3.24c-.53.93-1.3,1.68-2.28,2.28-.99.61-2.16.9-3.5.9s-2.64-.33-3.77-1.01c-1.14-.7-2.02-1.66-2.65-2.86-.64-1.23-.95-2.63-.95-4.19s.32-2.98.95-4.19c.64-1.19,1.51-2.12,2.65-2.76,1.13-.66,2.39-1.01,3.77-1.01ZM406.85,185.26c0-1.17-.25-2.17-.74-3.02-.46-.88-1.1-1.55-1.91-2.02-.78-.45-1.67-.69-2.65-.69s-1.84.24-2.65.69c-.78.42-1.41,1.09-1.86,1.96-.46.89-.69,1.91-.69,3.08s.23,2.2.69,3.08c.45.89,1.07,1.56,1.86,2.02.81.46,1.7.69,2.65.69s1.87-.23,2.65-.69c.81-.45,1.45-1.13,1.91-2.02.49-.88.74-1.91.74-3.08Z"/><path class="cls-2" d="M437.69,173.32l-7.48,19.73h-2.97l-7.43-19.73h2.76l6.15,17.03,6.21-17.03h2.76Z"/><path class="cls-2" d="M441.82,175.02c-.5,0-.93-.16-1.27-.48-.32-.34-.48-.77-.48-1.27s.16-.9.48-1.22c.34-.34.77-.53,1.27-.53s.9.19,1.22.53c.32.32.48.73.48,1.22s-.16.93-.48,1.27c-.32.32-.73.48-1.22.48ZM443.09,177.51v15.54h-2.6v-15.54h2.6Z"/><path class="cls-2" d="M452.97,193.32c-1.21,0-2.28-.2-3.24-.58-.93-.42-1.67-.98-2.23-1.7-.53-.74-.84-1.59-.9-2.55h2.65c.07.78.42,1.42,1.06,1.91.66.5,1.54.74,2.6.74.98,0,1.76-.21,2.33-.64.56-.45.85-1.02.85-1.7s-.31-1.17-.9-1.49c-.61-.32-1.54-.65-2.81-1.01-1.17-.28-2.12-.58-2.86-.9-.72-.32-1.33-.77-1.86-1.38-.5-.6-.74-1.41-.74-2.44,0-.77.23-1.5.69-2.17.49-.66,1.17-1.18,2.02-1.54.88-.38,1.87-.58,2.97-.58,1.72,0,3.13.45,4.19,1.33,1.06.85,1.62,2.02,1.7,3.5h-2.6c-.04-.81-.36-1.45-.95-1.91-.61-.49-1.41-.74-2.39-.74-.93,0-1.67.2-2.23.58-.53.4-.8.9-.8,1.54,0,.53.16.95.48,1.27s.72.58,1.22.8c.53.21,1.23.45,2.12.69,1.09.29,1.99.58,2.71.9.7.29,1.3.73,1.8,1.33.49.57.76,1.31.8,2.23,0,.85-.25,1.63-.74,2.33-.46.68-1.14,1.21-2.02,1.59-.85.38-1.83.58-2.92.58Z"/><path class="cls-2" d="M463.56,175.02c-.5,0-.93-.16-1.27-.48-.32-.34-.48-.77-.48-1.27s.16-.9.48-1.22c.34-.34.77-.53,1.27-.53s.9.19,1.22.53c.32.32.48.73.48,1.22s-.16.93-.48,1.27c-.32.32-.73.48-1.22.48ZM464.84,177.51v15.54h-2.6v-15.54h2.6Z"/><path class="cls-2" d="M471.8,180.43c.53-.92,1.29-1.66,2.28-2.23,1.02-.6,2.19-.9,3.5-.9,1.41,0,2.67.34,3.77,1.01,1.13.64,2.02,1.56,2.65,2.76.64,1.21.95,2.6.95,4.19s-.32,2.96-.95,4.19c-.64,1.21-1.53,2.16-2.65,2.86-1.14.68-2.39,1.01-3.77,1.01s-2.53-.28-3.55-.85c-.99-.6-1.74-1.35-2.23-2.28v2.86h-2.6v-20.95h2.6v8.33ZM482.3,185.26c0-1.17-.24-2.19-.69-3.08-.46-.88-1.1-1.54-1.91-1.96-.82-.45-1.7-.69-2.65-.69s-1.84.24-2.65.69c-.78.46-1.42,1.14-1.91,2.02-.46.89-.69,1.9-.69,3.02s.23,2.2.69,3.08c.49.89,1.13,1.56,1.91,2.02.81.46,1.7.69,2.65.69s1.83-.23,2.65-.69c.81-.45,1.45-1.13,1.91-2.02.45-.88.69-1.91.69-3.08Z"/><path class="cls-2" d="M489.67,175.02c-.5,0-.93-.16-1.27-.48-.32-.34-.48-.77-.48-1.27s.16-.9.48-1.22c.34-.34.77-.53,1.27-.53s.9.19,1.22.53c.32.32.48.73.48,1.22s-.16.93-.48,1.27c-.32.32-.73.48-1.22.48ZM490.94,177.51v15.54h-2.6v-15.54h2.6Z"/><path class="cls-2" d="M497.91,172.1v20.95h-2.6v-20.95h2.6Z"/><path class="cls-2" d="M503.6,175.02c-.5,0-.93-.16-1.27-.48-.32-.34-.48-.77-.48-1.27s.16-.9.48-1.22c.34-.34.77-.53,1.27-.53s.9.19,1.22.53c.32.32.48.73.48,1.22s-.16.93-.48,1.27c-.32.32-.73.48-1.22.48ZM504.87,177.51v15.54h-2.6v-15.54h2.6Z"/><path class="cls-2" d="M512.37,179.63v9.18c0,.74.16,1.27.48,1.59.34.32.92.48,1.7.48h1.91v2.17h-2.33c-1.46,0-2.53-.32-3.24-.95-.72-.66-1.06-1.76-1.06-3.29v-9.18h-2.02v-2.12h2.02v-3.87h2.55v3.87h4.08v2.12h-4.08Z"/><path class="cls-2" d="M532.91,177.51l-9.34,22.86h-2.65l3.02-7.48-6.26-15.38h2.86l4.88,12.57,4.83-12.57h2.65Z"/><path class="cls-2" d="M544.37,175.02c-.5,0-.93-.16-1.27-.48-.32-.34-.48-.77-.48-1.27s.16-.9.48-1.22c.34-.34.77-.53,1.27-.53s.9.19,1.22.53c.32.32.48.73.48,1.22s-.16.93-.48,1.27c-.32.32-.73.48-1.22.48ZM545.64,177.51v15.54h-2.6v-15.54h2.6Z"/><path class="cls-2" d="M557.59,177.25c1.87,0,3.4.58,4.56,1.75,1.17,1.14,1.75,2.79,1.75,4.93v9.12h-2.55v-8.81c0-1.51-.4-2.68-1.17-3.5-.78-.85-1.83-1.27-3.13-1.27-1.38,0-2.48.42-3.29,1.27-.78.85-1.17,2.1-1.17,3.71v8.59h-2.6v-15.54h2.6v2.23c.49-.77,1.18-1.38,2.07-1.8.88-.45,1.86-.69,2.92-.69Z"/><path class="cls-2" d="M584.65,193.27c-1.84,0-3.53-.42-5.04-1.27-1.49-.88-2.68-2.08-3.55-3.61-.89-1.55-1.33-3.29-1.33-5.2s.44-3.67,1.33-5.2c.88-1.55,2.07-2.76,3.55-3.61,1.51-.85,3.2-1.27,5.04-1.27s3.51.42,5.04,1.27c1.51.85,2.71,2.06,3.55,3.61.88,1.53,1.33,3.26,1.33,5.2s-.45,3.69-1.33,5.2c-.85,1.53-2.04,2.73-3.55,3.61-1.53.85-3.21,1.27-5.04,1.27ZM584.65,191.04c1.38,0,2.61-.32,3.71-.95,1.09-.66,1.96-1.59,2.6-2.76.64-1.19.95-2.57.95-4.14s-.32-2.97-.95-4.14c-.64-1.19-1.51-2.12-2.6-2.76-1.1-.64-2.33-.95-3.71-.95s-2.68.32-3.77.95c-1.1.64-1.96,1.56-2.6,2.76-.61,1.17-.9,2.55-.9,4.14s.29,2.94.9,4.14c.64,1.17,1.5,2.1,2.6,2.76,1.13.64,2.39.95,3.77.95Z"/><path class="cls-2" d="M605.53,177.25c1.87,0,3.4.58,4.56,1.75,1.17,1.14,1.75,2.79,1.75,4.93v9.12h-2.55v-8.81c0-1.51-.4-2.68-1.17-3.5-.78-.85-1.83-1.27-3.13-1.27-1.38,0-2.48.42-3.29,1.27-.78.85-1.17,2.1-1.17,3.71v8.59h-2.6v-15.54h2.6v2.23c.49-.77,1.18-1.38,2.07-1.8.88-.45,1.86-.69,2.92-.69Z"/><path class="cls-2" d="M630.23,184.67c0,.5-.03,1.03-.05,1.59h-12.41c.07,1.53.58,2.73,1.54,3.61.95.85,2.12,1.27,3.5,1.27,1.09,0,2.02-.27,2.76-.8s1.27-1.22,1.59-2.07h2.76c-.42,1.49-1.26,2.71-2.49,3.66-1.25.93-2.79,1.38-4.62,1.38-1.49,0-2.81-.33-3.98-1.01-1.17-.66-2.1-1.6-2.76-2.81-.64-1.19-.95-2.61-.95-4.24s.32-2.98.95-4.19c.64-1.23,1.54-2.17,2.71-2.81s2.51-.95,4.03-.95c1.45,0,2.73.32,3.87.95,1.13.64,1.99,1.53,2.6,2.65.64,1.1.95,2.36.95,3.77ZM627.57,184.14c0-.95-.24-1.78-.69-2.49-.42-.7-1.01-1.23-1.75-1.59-.74-.38-1.56-.58-2.44-.58-1.31,0-2.43.42-3.34,1.27-.93.82-1.46,1.95-1.59,3.4h9.81Z"/><path class="cls-2" d="M654.38,179.1c0,1.63-.57,3-1.7,4.08-1.14,1.1-2.85,1.64-5.15,1.64h-3.77v8.22h-2.6v-19.73h6.37c2.23,0,3.93.56,5.09,1.64,1.17,1.06,1.75,2.44,1.75,4.14ZM647.54,182.71c1.45,0,2.51-.32,3.18-.95.66-.64,1.01-1.51,1.01-2.65,0-2.44-1.41-3.66-4.19-3.66h-3.77v7.27h3.77Z"/><path class="cls-2" d="M660.17,172.1v20.95h-2.6v-20.95h2.6Z"/><path class="cls-2" d="M663.58,185.26c0-1.59.32-2.98.95-4.19.64-1.19,1.51-2.12,2.65-2.76,1.13-.66,2.39-1.01,3.77-1.01s2.51.31,3.5.9c1.02.57,1.78,1.3,2.28,2.17v-2.86h2.6v15.54h-2.6v-2.86c-.53.89-1.31,1.63-2.33,2.23-.99.61-2.16.9-3.5.9s-2.64-.33-3.77-1.01c-1.1-.7-1.96-1.66-2.6-2.86-.64-1.23-.95-2.63-.95-4.19ZM676.74,185.26c0-1.17-.25-2.17-.74-3.02-.46-.88-1.1-1.55-1.91-2.02-.78-.45-1.67-.69-2.65-.69s-1.84.24-2.65.69c-.78.42-1.41,1.09-1.86,1.96-.46.89-.69,1.91-.69,3.08s.23,2.2.69,3.08c.45.89,1.07,1.56,1.86,2.02.81.46,1.7.69,2.65.69s1.87-.23,2.65-.69c.81-.45,1.45-1.13,1.91-2.02.49-.88.74-1.91.74-3.08Z"/><path class="cls-2" d="M686.8,179.63v9.18c0,.74.16,1.27.48,1.59.34.32.92.48,1.7.48h1.91v2.17h-2.33c-1.46,0-2.53-.32-3.24-.95-.72-.66-1.06-1.76-1.06-3.29v-9.18h-2.02v-2.12h2.02v-3.87h2.55v3.87h4.08v2.12h-4.08Z"/><path class="cls-2" d="M700.29,179.63h-3.24v13.42h-2.6v-13.42h-2.02v-2.12h2.02v-1.06c0-1.76.44-3.04,1.33-3.82.92-.81,2.36-1.22,4.35-1.22v2.17c-1.14,0-1.94.24-2.39.69-.46.42-.69,1.15-.69,2.17v1.06h3.24v2.12Z"/><path class="cls-2" d="M710.09,193.32c-1.46,0-2.79-.33-3.98-1.01-1.17-.66-2.1-1.6-2.76-2.81-.68-1.19-1.01-2.61-1.01-4.24s.33-2.98,1.01-4.19c.7-1.23,1.64-2.17,2.81-2.81,1.19-.64,2.55-.95,4.03-.95s2.81.32,3.98.95c1.19.64,2.14,1.58,2.81,2.81.7,1.21,1.06,2.6,1.06,4.19s-.36,3.05-1.06,4.24c-.72,1.21-1.68,2.15-2.92,2.81-1.21.68-2.53,1.01-3.98,1.01ZM710.09,191.04c.92,0,1.78-.21,2.6-.64.81-.42,1.46-1.07,1.96-1.96.49-.88.74-1.94.74-3.18s-.25-2.28-.74-3.13c-.5-.88-1.14-1.54-1.91-1.96-.78-.42-1.64-.64-2.6-.64s-1.79.21-2.6.64c-.78.42-1.41,1.09-1.86,1.96-.46.85-.69,1.9-.69,3.13s.23,2.36.69,3.24c.45.85,1.07,1.49,1.86,1.91.77.42,1.62.64,2.55.64Z"/><path class="cls-2" d="M724.01,180.06c.45-.88,1.09-1.56,1.91-2.07.85-.49,1.87-.74,3.08-.74v2.65h-.69c-2.86,0-4.3,1.58-4.3,4.72v8.43h-2.6v-15.54h2.6v2.55Z"/><path class="cls-2" d="M750.65,177.25c1.19,0,2.28.25,3.24.74.95.5,1.7,1.26,2.23,2.28.56.99.85,2.21.85,3.66v9.12h-2.55v-8.81c0-1.51-.4-2.68-1.17-3.5-.78-.85-1.83-1.27-3.13-1.27s-2.41.45-3.18,1.33c-.78.85-1.17,2.1-1.17,3.71v8.54h-2.55v-8.81c0-1.51-.4-2.68-1.17-3.5-.78-.85-1.83-1.27-3.13-1.27s-2.37.45-3.18,1.33c-.78.85-1.17,2.1-1.17,3.71v8.54h-2.6v-15.54h2.6v2.28c.49-.81,1.17-1.43,2.02-1.86.88-.45,1.83-.69,2.86-.69,1.3,0,2.45.31,3.45.9,1.02.57,1.76,1.42,2.23,2.55.45-1.09,1.18-1.94,2.17-2.55.98-.6,2.1-.9,3.34-.9Z"/></svg>