<?xml version="1.0" encoding="UTF-8"?><svg id="White_Syntra_Logo_w_x2F__Words_x5F_Square" xmlns="http://www.w3.org/2000/svg" viewBox="0 0 715.95 430.65"><defs><style>.cls-1{fill-rule:evenodd;}.cls-1,.cls-2{fill:#fff;}</style></defs><path class="cls-1" d="M337.92,1.93c-27.52,3.8-57.65,26.25-69.34,51.68-22.9,49.77-1.78,103.33,49.18,124.64,5.63,2.36,11.26,4.95,12.5,5.76,4.44,2.9,5.1,1.92,5.37-7.97.29-10.77.54-10.44-11.2-14.68-42.18-15.26-62.63-61.26-43.94-98.82,5.72-11.5,7.68-13.62,5.44-5.91-12.34,42.52,7.39,77.51,48.97,86.83,4.75,1.07,8.99,2.49,9.41,3.15s.77,13.82.78,29.22c0,24.33.18,28.19,1.33,29.34,1.9,1.9,8.12,1.73,10.61-.28l2-1.62.42-28.32c.48-32.07-.26-29.5,8.87-30.91,42.21-6.51,64.24-47.36,49.41-91.59-1.65-4.89.34-2.68,4.87,5.44,21.42,38.39,1.84,87.46-41.19,103.23-11.8,4.32-12.18,4.75-12.49,13.95-.3,9.03.33,10.32,4.22,8.76,1.53-.62,6.67-2.55,11.43-4.32,77.14-28.59,82.19-132.02,8.24-169.13-15.11-7.59-36.93-10.95-54.89-8.46M361.99,26.17c44.37,8.05,62.73,57.66,32.56,87.96-12.16,12.21-35.1,21.23-35.1,13.79,0-4.17,1.33-5.63,6.5-7.14,51.93-15.1,40.47-85.69-13.91-85.69s-65.05,69.32-13.69,85.68c6.48,2.06,10.4,9.73,4.98,9.73-11.89,0-31.53-11.76-39.68-23.77-25.76-37.93,11.3-89.11,58.34-80.58M364.52,51.08c29.9,11.4,26.63,51.26-4.65,56.7-30.14,5.25-51.54-22.29-35.15-45.24,8.24-11.54,26.11-16.68,39.8-11.47"/><path class="cls-2" d="M60.43,246.62c17.18,0,32.28,4.27,45.32,12.81l-11.01,22.84c-6.02-3.49-12.49-6.36-19.4-8.6-6.89-2.26-12.69-3.39-17.38-3.39-8.44,0-12.66,2.79-12.66,8.36,0,3.62,2.07,6.53,6.22,8.72,4.16,2.2,9.23,4.09,15.19,5.67,5.98,1.59,11.94,3.51,17.9,5.76,5.98,2.24,11.05,5.88,15.22,10.92,4.16,5.02,6.25,11.37,6.25,19.03,0,11.06-4.33,19.69-12.99,25.86-8.65,6.18-19.64,9.27-33,9.27-9.54,0-18.96-1.63-28.27-4.91-9.29-3.29-17.38-7.78-24.28-13.48l11.31-22.51c5.81,5.05,12.66,9.18,20.52,12.41,7.88,3.23,14.9,4.85,21.04,4.85,4.7,0,8.36-.84,10.98-2.53,2.64-1.71,3.96-4.21,3.96-7.5s-1.52-5.83-4.54-7.96c-3.01-2.13-6.76-3.72-11.25-4.76-4.48-1.04-9.35-2.42-14.61-4.18-5.25-1.75-10.12-3.66-14.61-5.73-4.5-2.09-8.25-5.41-11.25-9.94-3.01-4.55-4.51-10-4.51-16.35,0-10.51,4.19-18.92,12.57-25.22,8.37-6.3,19.47-9.45,33.27-9.45Z"/><path class="cls-2" d="M181.29,325.79v37.12h-29.06v-36.29l-42.54-78.65h29.25l27.75,50.08,27.08-50.08h29.25l-41.72,77.83Z"/><path class="cls-2" d="M339.78,362.91h-25.8l-52.88-70.79v70.79h-27.42v-114.95h25.77l53.07,70.94v-70.94h27.26v114.95Z"/><path class="cls-2" d="M450.63,271.45h-34.65v91.46h-29.25v-91.46h-34.31v-23.67h98.2v23.67Z"/><path class="cls-2" d="M532.4,362.91l-17.08-32.36h-23v32.36h-29.22v-114.95h51.39c15.23,0,27,3.48,35.32,10.43,8.31,6.94,12.47,16.8,12.47,29.61,0,17.75-6.95,30.07-20.83,36.96l24.12,37.94h-33.18ZM492.33,307.55h22.17c6.36,0,11.29-1.59,14.79-4.76,3.49-3.17,5.25-7.76,5.25-13.78s-1.75-10.41-5.25-13.48c-3.5-3.07-8.43-4.61-14.79-4.61h-22.17v36.63Z"/><path class="cls-2" d="M658.38,341.71h-50.26l-8.36,21.2h-30.07l49.59-114.95h30.07l48.43,114.95h-31.2l-8.2-21.2ZM649.84,319.54l-16.44-42.51-16.74,42.51h33.18Z"/><path class="cls-2" d="M10.45,388.9v15.07c0,2.12.52,3.69,1.56,4.73,1.04,1.02,2.48,1.52,4.33,1.52s3.26-.5,4.3-1.52c1.04-1.04,1.56-2.61,1.56-4.73v-15.07h3.11v15.04c0,1.97-.41,3.64-1.22,5-.79,1.36-1.88,2.38-3.23,3.05-1.34.66-2.86.98-4.54.98s-3.22-.32-4.57-.98c-1.36-.67-2.44-1.68-3.23-3.05-.78-1.36-1.16-3.03-1.16-5v-15.04h3.11Z"/><path class="cls-2" d="M39.63,393.63c2.27,0,4.12.69,5.52,2.07,1.42,1.39,2.13,3.38,2.13,5.98v11.04h-3.08v-10.61c0-1.85-.47-3.27-1.4-4.27-.94-.99-2.22-1.49-3.84-1.49s-2.93.52-3.9,1.56c-.98,1.02-1.46,2.5-1.46,4.45v10.37h-3.11v-18.73h3.11v2.65c.63-.95,1.47-1.69,2.53-2.23,1.05-.53,2.23-.79,3.51-.79Z"/><path class="cls-2" d="M53.99,390.95c-.59,0-1.09-.2-1.49-.61-.41-.4-.61-.91-.61-1.52s.2-1.08.61-1.49c.4-.4.9-.61,1.49-.61s1.04.21,1.43.61c.4.41.61.91.61,1.49s-.21,1.12-.61,1.52c-.39.41-.87.61-1.43.61ZM55.48,394v18.73h-3.11v-18.73h3.11Z"/><path class="cls-2" d="M68.41,396.56h-3.93v16.16h-3.11v-16.16h-2.41v-2.56h2.41v-1.34c0-2.09.53-3.61,1.62-4.57,1.1-.98,2.84-1.46,5.25-1.46v2.59c-1.39,0-2.36.27-2.93.79-.55.53-.82,1.42-.82,2.65v1.34h3.93v2.56Z"/><path class="cls-2" d="M73.65,390.95c-.59,0-1.09-.2-1.49-.61-.41-.4-.61-.91-.61-1.52s.2-1.08.61-1.49c.4-.4.9-.61,1.49-.61s1.04.21,1.43.61c.4.41.61.91.61,1.49s-.21,1.12-.61,1.52c-.39.41-.87.61-1.43.61ZM75.14,394v18.73h-3.11v-18.73h3.11Z"/><path class="cls-2" d="M97.55,402.63c0,.59-.05,1.22-.12,1.89h-14.97c.12,1.85.75,3.29,1.89,4.33,1.16,1.04,2.56,1.56,4.21,1.56,1.34,0,2.46-.31,3.35-.95.91-.63,1.56-1.46,1.92-2.5h3.32c-.49,1.79-1.49,3.26-2.99,4.39-1.51,1.12-3.38,1.68-5.61,1.68-1.77,0-3.35-.4-4.76-1.19s-2.52-1.92-3.32-3.39c-.79-1.48-1.19-3.19-1.19-5.12s.38-3.64,1.16-5.09c.77-1.46,1.86-2.58,3.26-3.35,1.4-.79,3.02-1.19,4.85-1.19s3.33.39,4.7,1.16c1.38.78,2.44,1.85,3.17,3.2.75,1.34,1.13,2.87,1.13,4.57ZM94.32,401.99c0-1.17-.27-2.2-.79-3.05-.51-.85-1.22-1.5-2.13-1.95-.9-.44-1.88-.67-2.96-.67-1.59,0-2.94.51-4.06,1.52-1.1,1-1.72,2.38-1.86,4.15h11.8Z"/><path class="cls-2" d="M100.49,403.3c0-1.93.38-3.61,1.16-5.06.77-1.44,1.84-2.56,3.2-3.35,1.36-.79,2.88-1.19,4.57-1.19,1.46,0,2.81.34,4.06,1.01,1.26.67,2.21,1.56,2.87,2.65v-9.94h3.14v25.31h-3.14v-3.51c-.61,1.1-1.52,2.01-2.74,2.74-1.2.72-2.61,1.07-4.21,1.07s-3.19-.4-4.54-1.22c-1.36-.83-2.43-1.98-3.2-3.45-.78-1.48-1.16-3.17-1.16-5.06ZM116.35,403.33c0-1.42-.29-2.65-.85-3.69-.57-1.05-1.34-1.86-2.32-2.41-.96-.56-2.01-.85-3.17-.85s-2.22.27-3.17.82c-.96.55-1.73,1.36-2.32,2.41-.57,1.04-.85,2.27-.85,3.69s.28,2.67.85,3.72c.59,1.06,1.36,1.88,2.32,2.44.95.55,2.01.82,3.17.82s2.21-.27,3.17-.82c.98-.56,1.75-1.38,2.32-2.44.56-1.05.85-2.29.85-3.69Z"/><path class="cls-2" d="M148.56,388.9v2.53h-6.5v21.29h-3.11v-21.29h-6.53v-2.53h16.13Z"/><path class="cls-2" d="M155.5,397.02c.55-1.05,1.33-1.88,2.35-2.47,1.01-.61,2.26-.91,3.72-.91v3.23h-.82c-3.5,0-5.25,1.89-5.25,5.67v10.19h-3.11v-18.73h3.11v3.02Z"/><path class="cls-2" d="M163.99,403.3c0-1.93.38-3.61,1.16-5.06.77-1.44,1.84-2.56,3.2-3.35,1.36-.79,2.87-1.19,4.54-1.19s3.03.36,4.24,1.07c1.22.69,2.12,1.58,2.71,2.65v-3.42h3.14v18.73h-3.14v-3.48c-.61,1.08-1.52,1.98-2.74,2.71-1.22.72-2.64,1.07-4.24,1.07s-3.19-.4-4.54-1.22c-1.34-.83-2.4-1.98-3.17-3.45-.78-1.48-1.16-3.17-1.16-5.06ZM179.85,403.33c0-1.42-.29-2.65-.85-3.69-.57-1.05-1.34-1.86-2.32-2.41-.96-.56-2.01-.85-3.17-.85s-2.22.27-3.17.82c-.96.55-1.73,1.36-2.32,2.41-.57,1.04-.85,2.27-.85,3.69s.28,2.67.85,3.72c.59,1.06,1.36,1.88,2.32,2.44.95.55,2.01.82,3.17.82s2.21-.27,3.17-.82c.98-.56,1.75-1.38,2.32-2.44.56-1.05.85-2.29.85-3.69Z"/><path class="cls-2" d="M187.1,403.33c0-1.95.38-3.64,1.16-5.09.77-1.44,1.85-2.56,3.23-3.35,1.38-.79,2.97-1.19,4.76-1.19,2.29,0,4.19.56,5.67,1.68,1.5,1.1,2.49,2.65,2.96,4.64h-3.35c-.3-1.14-.93-2.03-1.86-2.68-.91-.67-2.06-1.01-3.42-1.01-1.79,0-3.23.61-4.33,1.83s-1.65,2.95-1.65,5.18.55,4.01,1.65,5.25c1.1,1.22,2.54,1.83,4.33,1.83,1.36,0,2.49-.31,3.39-.95.91-.65,1.54-1.56,1.89-2.74h3.35c-.51,1.91-1.52,3.45-3.02,4.61-1.51,1.14-3.38,1.71-5.61,1.71-1.79,0-3.38-.4-4.76-1.19-1.39-.79-2.46-1.92-3.23-3.39-.78-1.46-1.16-3.17-1.16-5.12Z"/><path class="cls-2" d="M219.48,412.72l-7.35-8.26v8.26h-3.11v-25.31h3.11v14.88l7.23-8.3h4.33l-8.81,9.33,8.84,9.39h-4.24Z"/><path class="cls-2" d="M228.25,390.95c-.59,0-1.09-.2-1.49-.61-.41-.4-.61-.91-.61-1.52s.2-1.08.61-1.49c.4-.4.9-.61,1.49-.61s1.04.21,1.43.61c.4.41.61.91.61,1.49s-.21,1.12-.61,1.52c-.39.41-.87.61-1.43.61ZM229.74,394v18.73h-3.11v-18.73h3.11Z"/><path class="cls-2" d="M244.19,393.63c2.27,0,4.12.69,5.52,2.07,1.42,1.39,2.13,3.38,2.13,5.98v11.04h-3.08v-10.61c0-1.85-.47-3.27-1.4-4.27-.94-.99-2.22-1.49-3.84-1.49s-2.93.52-3.9,1.56c-.98,1.02-1.46,2.5-1.46,4.45v10.37h-3.11v-18.73h3.11v2.65c.63-.95,1.47-1.69,2.53-2.23,1.05-.53,2.23-.79,3.51-.79Z"/><path class="cls-2" d="M264.67,393.69c1.6,0,3.02.36,4.24,1.07,1.22.69,2.12,1.58,2.71,2.65v-3.42h3.14v19.12c0,1.72-.37,3.25-1.1,4.57-.72,1.34-1.75,2.39-3.11,3.14-1.36.75-2.94,1.13-4.73,1.13-2.46,0-4.51-.59-6.16-1.77-1.65-1.16-2.62-2.74-2.9-4.73h3.08c.32,1.14,1.02,2.05,2.1,2.74,1.08.69,2.36,1.04,3.87,1.04,1.71,0,3.1-.54,4.18-1.62,1.08-1.06,1.62-2.56,1.62-4.51v-3.9c-.61,1.08-1.52,1.98-2.74,2.71-1.2.73-2.61,1.1-4.21,1.1s-3.19-.4-4.54-1.22c-1.36-.83-2.43-1.98-3.2-3.45-.78-1.48-1.16-3.17-1.16-5.06s.38-3.61,1.16-5.06c.77-1.44,1.84-2.56,3.2-3.35,1.36-.79,2.87-1.19,4.54-1.19ZM271.63,403.33c0-1.42-.29-2.65-.85-3.69-.57-1.05-1.34-1.86-2.32-2.41-.96-.56-2.01-.85-3.17-.85s-2.22.27-3.17.82c-.96.55-1.73,1.36-2.32,2.41-.57,1.04-.85,2.27-.85,3.69s.28,2.67.85,3.72c.59,1.06,1.36,1.88,2.32,2.44.95.55,2.01.82,3.17.82s2.21-.27,3.17-.82c.98-.56,1.75-1.38,2.32-2.44.56-1.05.85-2.29.85-3.69Z"/><path class="cls-2" d="M308.88,388.9l-9,23.82h-3.6l-8.97-23.82h3.29l7.5,20.52,7.47-20.52h3.29Z"/><path class="cls-2" d="M313.91,390.95c-.59,0-1.09-.2-1.49-.61-.41-.4-.61-.91-.61-1.52s.2-1.08.61-1.49c.4-.4.9-.61,1.49-.61s1.04.21,1.43.61c.4.41.61.91.61,1.49s-.21,1.12-.61,1.52c-.39.41-.87.61-1.43.61ZM315.4,394v18.73h-3.11v-18.73h3.11Z"/><path class="cls-2" d="M327.35,413.03c-1.45,0-2.74-.24-3.87-.73-1.14-.49-2.04-1.17-2.71-2.04-.66-.87-1.01-1.88-1.07-3.02h3.2c.1.91.53,1.68,1.31,2.29.79.59,1.83.88,3.11.88,1.17,0,2.1-.26,2.78-.79.69-.53,1.04-1.19,1.04-1.98s-.37-1.42-1.1-1.83c-.73-.4-1.86-.8-3.39-1.19-1.39-.37-2.52-.73-3.39-1.1-.88-.38-1.63-.95-2.26-1.68-.63-.73-.95-1.71-.95-2.93,0-.95.28-1.83.85-2.62.56-.79,1.37-1.42,2.41-1.89,1.05-.47,2.26-.7,3.6-.7,2.07,0,3.75.53,5.03,1.59,1.28,1.04,1.96,2.46,2.04,4.27h-3.11c-.06-.98-.46-1.75-1.19-2.35-.72-.59-1.67-.88-2.87-.88-1.12,0-2.01.24-2.68.73-.66.47-.98,1.09-.98,1.86,0,.61.19,1.12.58,1.52.4.41.91.73,1.52.98.61.23,1.44.49,2.5.79,1.36.37,2.46.72,3.29,1.07.83.35,1.56.88,2.17,1.59.61.72.92,1.64.95,2.78,0,1.02-.29,1.94-.85,2.78-.57.82-1.37,1.46-2.41,1.92-1.04.47-2.23.7-3.57.7Z"/><path class="cls-2" d="M340.17,390.95c-.59,0-1.09-.2-1.49-.61-.41-.4-.61-.91-.61-1.52s.2-1.08.61-1.49c.4-.4.9-.61,1.49-.61s1.04.21,1.43.61c.4.41.61.91.61,1.49s-.21,1.12-.61,1.52c-.39.41-.87.61-1.43.61ZM341.66,394v18.73h-3.11v-18.73h3.11Z"/><path class="cls-2" d="M350.07,397.47c.65-1.11,1.59-2.02,2.81-2.71,1.24-.71,2.64-1.07,4.21-1.07,1.68,0,3.2.4,4.54,1.19s2.39,1.91,3.17,3.35c.79,1.45,1.19,3.13,1.19,5.06s-.4,3.58-1.19,5.06c-.78,1.46-1.85,2.62-3.2,3.45-1.34.82-2.85,1.22-4.51,1.22s-3.02-.34-4.24-1.04c-1.22-.71-2.15-1.62-2.78-2.71v3.45h-3.11v-25.31h3.11v10.06ZM362.79,403.3c0-1.42-.29-2.65-.85-3.69-.57-1.05-1.34-1.86-2.32-2.41-.96-.55-2.01-.82-3.17-.82s-2.2.29-3.17.85c-.98.55-1.76,1.36-2.35,2.41-.57,1.06-.85,2.29-.85,3.69s.28,2.64.85,3.69c.59,1.06,1.37,1.88,2.35,2.44.98.55,2.03.82,3.17.82s2.21-.27,3.17-.82c.98-.56,1.75-1.38,2.32-2.44.56-1.05.85-2.29.85-3.72Z"/><path class="cls-2" d="M371.7,390.95c-.59,0-1.09-.2-1.49-.61-.41-.4-.61-.91-.61-1.52s.2-1.08.61-1.49c.4-.4.9-.61,1.49-.61s1.04.21,1.43.61c.4.41.61.91.61,1.49s-.21,1.12-.61,1.52c-.39.41-.87.61-1.43.61ZM373.19,394v18.73h-3.11v-18.73h3.11Z"/><path class="cls-2" d="M381.6,387.41v25.31h-3.11v-25.31h3.11Z"/><path class="cls-2" d="M388.52,390.95c-.59,0-1.09-.2-1.49-.61-.41-.4-.61-.91-.61-1.52s.2-1.08.61-1.49c.4-.4.9-.61,1.49-.61s1.04.21,1.43.61c.4.41.61.91.61,1.49s-.21,1.12-.61,1.52c-.39.41-.87.61-1.43.61ZM390.02,394v18.73h-3.11v-18.73h3.11Z"/><path class="cls-2" d="M399.13,396.56v11.04c0,.91.19,1.57.58,1.95.38.37,1.05.55,2.01.55h2.29v2.62h-2.81c-1.73,0-3.03-.4-3.9-1.19-.85-.79-1.28-2.1-1.28-3.93v-11.04h-2.44v-2.56h2.44v-4.73h3.11v4.73h4.88v2.56h-4.88Z"/><path class="cls-2" d="M423.9,394l-11.28,27.54h-3.2l3.69-9.03-7.56-18.51h3.48l5.86,15.16,5.83-15.16h3.2Z"/><path class="cls-2" d="M437.76,390.95c-.59,0-1.09-.2-1.49-.61-.41-.4-.61-.91-.61-1.52s.2-1.08.61-1.49c.4-.4.9-.61,1.49-.61s1.04.21,1.43.61c.4.41.61.91.61,1.49s-.21,1.12-.61,1.52c-.39.41-.87.61-1.43.61ZM439.26,394v18.73h-3.11v-18.73h3.11Z"/><path class="cls-2" d="M453.71,393.63c2.27,0,4.12.69,5.52,2.07,1.42,1.39,2.13,3.38,2.13,5.98v11.04h-3.08v-10.61c0-1.85-.47-3.27-1.4-4.27-.94-.99-2.22-1.49-3.84-1.49s-2.93.52-3.9,1.56c-.98,1.02-1.46,2.5-1.46,4.45v10.37h-3.11v-18.73h3.11v2.65c.63-.95,1.47-1.69,2.53-2.23,1.05-.53,2.23-.79,3.51-.79Z"/><path class="cls-2" d="M486.4,412.97c-2.22,0-4.24-.52-6.07-1.56s-3.28-2.48-4.33-4.33c-1.06-1.87-1.59-3.96-1.59-6.28s.53-4.43,1.59-6.28c1.05-1.85,2.5-3.29,4.33-4.33s3.85-1.56,6.07-1.56,4.24.52,6.07,1.56,3.26,2.49,4.3,4.33c1.05,1.83,1.59,3.93,1.59,6.28s-.53,4.44-1.59,6.28c-1.04,1.85-2.47,3.29-4.3,4.33s-3.86,1.56-6.07,1.56ZM486.4,410.25c1.65,0,3.14-.38,4.48-1.16,1.34-.77,2.39-1.87,3.14-3.29.77-1.44,1.16-3.11,1.16-5s-.39-3.58-1.16-5c-.75-1.44-1.79-2.55-3.11-3.32-1.33-.77-2.83-1.16-4.51-1.16s-3.19.39-4.51,1.16c-1.33.78-2.37,1.88-3.14,3.32-.78,1.43-1.16,3.1-1.16,5s.38,3.56,1.16,5c.77,1.43,1.81,2.52,3.14,3.29,1.34.78,2.84,1.16,4.51,1.16Z"/><path class="cls-2" d="M511.6,393.63c2.27,0,4.12.69,5.52,2.07,1.42,1.39,2.13,3.38,2.13,5.98v11.04h-3.08v-10.61c0-1.85-.47-3.27-1.4-4.27-.94-.99-2.22-1.49-3.84-1.49s-2.93.52-3.9,1.56c-.98,1.02-1.46,2.5-1.46,4.45v10.37h-3.11v-18.73h3.11v2.65c.63-.95,1.47-1.69,2.53-2.23,1.05-.53,2.23-.79,3.51-.79Z"/><path class="cls-2" d="M541.45,402.63c0,.59-.05,1.22-.12,1.89h-14.97c.12,1.85.75,3.29,1.89,4.33,1.16,1.04,2.56,1.56,4.21,1.56,1.34,0,2.46-.31,3.35-.95.91-.63,1.56-1.46,1.92-2.5h3.32c-.49,1.79-1.49,3.26-2.99,4.39-1.51,1.12-3.38,1.68-5.61,1.68-1.77,0-3.35-.4-4.76-1.19s-2.52-1.92-3.32-3.39c-.79-1.48-1.19-3.19-1.19-5.12s.38-3.64,1.16-5.09c.77-1.46,1.86-2.58,3.26-3.35,1.4-.79,3.02-1.19,4.85-1.19s3.33.39,4.7,1.16c1.38.78,2.44,1.85,3.17,3.2.75,1.34,1.13,2.87,1.13,4.57ZM538.21,401.99c0-1.17-.27-2.2-.79-3.05-.51-.85-1.22-1.5-2.13-1.95-.9-.44-1.88-.67-2.96-.67-1.59,0-2.94.51-4.06,1.52-1.1,1-1.72,2.38-1.86,4.15h11.8Z"/><path class="cls-2" d="M570.62,395.86c0,2-.69,3.65-2.04,4.97-1.36,1.3-3.43,1.95-6.19,1.95h-4.61v9.94h-3.11v-23.82h7.72c2.68,0,4.73.66,6.13,1.95,1.4,1.28,2.1,2.95,2.1,5ZM562.38,400.22c1.72,0,3-.37,3.81-1.13.81-.75,1.22-1.83,1.22-3.23,0-2.93-1.68-4.39-5.03-4.39h-4.61v8.75h4.61Z"/><path class="cls-2" d="M577.58,387.41v25.31h-3.11v-25.31h3.11Z"/><path class="cls-2" d="M581.72,403.3c0-1.93.38-3.61,1.16-5.06.77-1.44,1.84-2.56,3.2-3.35,1.36-.79,2.87-1.19,4.54-1.19s3.03.36,4.24,1.07c1.22.69,2.12,1.58,2.71,2.65v-3.42h3.14v18.73h-3.14v-3.48c-.61,1.08-1.52,1.98-2.74,2.71-1.22.72-2.64,1.07-4.24,1.07s-3.19-.4-4.54-1.22c-1.34-.83-2.4-1.98-3.17-3.45-.78-1.48-1.16-3.17-1.16-5.06ZM597.58,403.33c0-1.42-.29-2.65-.85-3.69-.57-1.05-1.34-1.86-2.32-2.41-.96-.56-2.01-.85-3.17-.85s-2.22.27-3.17.82c-.96.55-1.73,1.36-2.32,2.41-.57,1.04-.85,2.27-.85,3.69s.28,2.67.85,3.72c.59,1.06,1.36,1.88,2.32,2.44.95.55,2.01.82,3.17.82s2.21-.27,3.17-.82c.98-.56,1.75-1.38,2.32-2.44.56-1.05.85-2.29.85-3.69Z"/><path class="cls-2" d="M609.81,396.56v11.04c0,.91.19,1.57.58,1.95.38.37,1.05.55,2.01.55h2.29v2.62h-2.81c-1.73,0-3.03-.4-3.9-1.19-.85-.79-1.28-2.1-1.28-3.93v-11.04h-2.44v-2.56h2.44v-4.73h3.11v4.73h4.88v2.56h-4.88Z"/><path class="cls-2" d="M626.07,396.56h-3.93v16.16h-3.11v-16.16h-2.41v-2.56h2.41v-1.34c0-2.09.53-3.61,1.62-4.57,1.1-.98,2.84-1.46,5.25-1.46v2.59c-1.39,0-2.36.27-2.93.79-.55.53-.82,1.42-.82,2.65v1.34h3.93v2.56Z"/><path class="cls-2" d="M637.87,413.03c-1.75,0-3.34-.4-4.76-1.19-1.43-.79-2.55-1.92-3.35-3.39-.82-1.48-1.22-3.19-1.22-5.12s.41-3.6,1.25-5.06c.83-1.48,1.96-2.61,3.39-3.39,1.44-.79,3.06-1.19,4.85-1.19s3.36.4,4.79,1.19c1.44.78,2.58,1.89,3.42,3.35.83,1.45,1.25,3.14,1.25,5.09s-.43,3.64-1.28,5.12c-.85,1.46-2.01,2.59-3.48,3.39-1.45.79-3.07,1.19-4.85,1.19ZM637.87,410.28c1.11,0,2.17-.25,3.14-.76.99-.53,1.78-1.31,2.38-2.35.61-1.05.91-2.33.91-3.84s-.3-2.78-.88-3.81c-.59-1.05-1.36-1.84-2.32-2.35-.96-.53-2-.79-3.11-.79s-2.19.27-3.14.79c-.94.51-1.7,1.3-2.29,2.35-.57,1.04-.85,2.31-.85,3.81s.27,2.82.82,3.87c.56,1.04,1.32,1.81,2.26,2.32.93.51,1.96.76,3.08.76Z"/><path class="cls-2" d="M654.69,397.02c.55-1.05,1.33-1.88,2.35-2.47,1.01-.61,2.26-.91,3.72-.91v3.23h-.82c-3.5,0-5.25,1.89-5.25,5.67v10.19h-3.11v-18.73h3.11v3.02Z"/><path class="cls-2" d="M686.87,393.63c1.46,0,2.76.3,3.9.91,1.14.61,2.03,1.52,2.68,2.74.67,1.2,1.01,2.67,1.01,4.39v11.04h-3.08v-10.61c0-1.85-.47-3.27-1.4-4.27-.91-.99-2.16-1.49-3.72-1.49s-2.92.52-3.87,1.56c-.96,1.04-1.43,2.53-1.43,4.48v10.34h-3.08v-10.61c0-1.85-.47-3.27-1.4-4.27-.91-.99-2.16-1.49-3.72-1.49s-2.92.52-3.87,1.56c-.96,1.04-1.43,2.53-1.43,4.48v10.34h-3.11v-18.73h3.11v2.68c.63-.98,1.46-1.72,2.5-2.26,1.04-.53,2.17-.79,3.42-.79,1.59,0,2.97.36,4.18,1.07,1.2.72,2.1,1.75,2.71,3.11.5-1.32,1.36-2.35,2.56-3.08,1.22-.73,2.57-1.1,4.06-1.1Z"/></svg>