<?xml version="1.0" encoding="UTF-8"?><svg id="White_Syntra_Pin" xmlns="http://www.w3.org/2000/svg" viewBox="0 0 715.95 430.65"><defs><style>.cls-1{fill:#fff;fill-rule:evenodd;}</style></defs><path class="cls-1" d="M331.7,4.98c-54.43,7.53-113.98,51.91-137.11,102.17-45.29,98.43-3.51,204.32,97.24,246.46,11.13,4.66,22.26,9.79,24.72,11.4,8.77,5.75,10.08,3.79,10.61-15.76.57-21.3,1.07-20.63-22.15-29.04-83.4-30.18-123.84-121.14-86.88-195.39,11.31-22.73,15.18-26.93,10.76-11.69-24.39,84.08,14.63,153.26,96.83,171.7,9.4,2.11,17.77,4.91,18.6,6.22.83,1.32,1.52,27.32,1.54,57.79.02,48.11.37,55.73,2.65,58.02,3.76,3.75,16.06,3.42,20.98-.57l3.94-3.19.83-56c.95-63.41-.51-58.33,17.53-61.11,83.46-12.87,127.03-93.63,97.7-181.1-3.25-9.68.67-5.31,9.63,10.74,42.35,75.9,3.63,172.92-81.45,204.11-23.33,8.55-24.09,9.4-24.69,27.58-.58,17.85.65,20.41,8.34,17.32,3.03-1.21,13.19-5.06,22.59-8.54,152.55-56.53,162.51-261.03,16.3-334.42C410.35,6.72,367.21.07,331.7,4.98M379.28,52.92c87.71,15.92,124.03,114.01,64.38,173.92-24.05,24.16-69.39,41.97-69.39,27.27,0-8.24,2.64-11.14,12.83-14.1,102.69-29.85,80.03-169.44-27.51-169.44s-128.63,137.07-27.07,169.42c12.8,4.08,20.56,19.24,9.84,19.24-23.51,0-62.34-23.26-78.46-46.99-50.93-74.99,22.35-176.19,115.36-159.32M384.29,102.16c59.12,22.54,52.66,101.34-9.2,112.12-59.59,10.38-101.9-44.09-69.48-89.45,16.3-22.81,51.63-32.98,78.68-22.67"/></svg>