<?xml version="1.0" encoding="UTF-8"?><svg id="White_Syntra_Logo_no_words" xmlns="http://www.w3.org/2000/svg" viewBox="0 0 792 269.94"><defs><style>.cls-1{fill-rule:evenodd;}.cls-1,.cls-2{fill:#fff;}</style></defs><path class="cls-2" d="M222.63,94.33c14.67,0,27.58,3.66,38.71,10.96l-9.41,19.49c-5.15-3-10.67-5.46-16.57-7.38-5.88-1.9-10.82-2.86-14.81-2.86-7.2,0-10.79,2.4-10.79,7.16,0,3.08,1.76,5.56,5.29,7.43,3.55,1.87,7.89,3.5,12.99,4.85,5.09,1.36,10.19,3,15.25,4.9,5.09,1.91,9.43,5.01,12.99,9.3,3.55,4.29,5.34,9.72,5.34,16.24,0,9.47-3.69,16.85-11.07,22.13-7.38,5.26-16.78,7.87-28.19,7.87-8.12,0-16.16-1.39-24.12-4.18-7.93-2.78-14.85-6.62-20.76-11.51l9.69-19.22c4.96,4.29,10.79,7.85,17.51,10.63,6.74,2.75,12.73,4.13,17.95,4.13,4.03,0,7.17-.72,9.41-2.15,2.23-1.46,3.36-3.61,3.36-6.44,0-2.67-1.29-4.93-3.85-6.77-2.57-1.83-5.78-3.19-9.64-4.07-3.83-.88-7.97-2.06-12.44-3.58-4.49-1.5-8.64-3.14-12.5-4.9-3.83-1.76-7.02-4.58-9.58-8.48-2.57-3.88-3.85-8.53-3.85-13.93,0-8.99,3.55-16.16,10.68-21.53,7.16-5.4,16.63-8.09,28.41-8.09Z"/><path class="cls-2" d="M325.79,161.94v31.66h-24.78v-31l-36.34-67.12h24.94l23.73,42.73,23.12-42.73h24.94l-35.62,66.46Z"/><path class="cls-2" d="M461.09,193.6h-22.02l-45.15-60.4v60.4h-23.4v-98.11h22.02l45.26,60.56v-60.56h23.29v98.11Z"/><path class="cls-2" d="M555.68,115.53h-29.57v78.07h-24.94v-78.07h-29.29v-20.21h83.8v20.21Z"/><path class="cls-2" d="M625.53,193.6l-14.59-27.64h-19.66v27.64h-24.94v-98.11h43.88c12.99,0,23.03,2.97,30.12,8.92,7.12,5.92,10.68,14.34,10.68,25.27,0,15.13-5.93,25.64-17.78,31.55l20.59,32.37h-28.3ZM591.29,146.36h18.94c5.42,0,9.64-1.35,12.61-4.07,3-2.71,4.51-6.63,4.51-11.78s-1.51-8.84-4.51-11.45c-2.97-2.64-7.19-3.96-12.61-3.96h-18.94v31.27Z"/><path class="cls-2" d="M733.02,175.54h-42.89l-7.16,18.06h-25.66l42.34-98.11h25.66l41.35,98.11h-26.65l-6.99-18.06ZM725.76,156.6l-14.04-36.34-14.32,36.34h28.36Z"/><path class="cls-1" d="M79.24,71.88c-19.17,2.66-40.14,18.28-48.29,35.98-15.95,34.67-1.24,71.96,34.25,86.8,3.92,1.64,7.83,3.44,8.7,4.02,3.1,2.02,3.55,1.34,3.74-5.56.19-7.49.37-7.25-7.8-10.21-29.36-10.64-43.61-42.67-30.6-68.81,3.99-8.01,5.35-9.48,3.8-4.12-8.59,29.61,5.15,53.97,34.09,60.45,3.32.74,6.26,1.73,6.55,2.2.29.45.54,9.62.54,20.34.01,16.94.14,19.63.94,20.43,1.32,1.32,5.66,1.21,7.39-.19l1.39-1.13.29-19.71c.33-22.34-.18-20.55,6.18-21.53,29.39-4.53,44.73-32.97,34.4-63.77-1.14-3.41.25-1.87,3.4,3.79,14.91,26.73,1.28,60.89-28.69,71.88-8.22,3.01-8.49,3.3-8.7,9.7-.21,6.29.23,7.2,2.93,6.11,1.07-.43,4.65-1.79,7.96-3.01,53.72-19.9,57.23-91.92,5.74-117.77-10.52-5.27-25.7-7.61-38.21-5.89M95.99,88.77c30.89,5.6,43.69,40.15,22.67,61.24-8.47,8.52-24.43,14.78-24.43,9.61,0-2.9.94-3.92,4.53-4.97,36.16-10.5,28.18-59.67-9.69-59.67s-45.3,48.27-9.54,59.67c4.51,1.43,7.24,6.77,3.47,6.77-8.27,0-21.95-8.19-27.63-16.55-17.94-26.41,7.87-62.05,40.62-56.1M97.76,106.12c20.83,7.93,18.55,35.68-3.23,39.48-20.98,3.66-35.88-15.53-24.47-31.49,5.74-8.04,18.18-11.62,27.71-7.98"/></svg>