<?xml version="1.0" encoding="UTF-8"?><svg id="Black_Syntra_Logo_w_x2F__Words_x5F_Square" xmlns="http://www.w3.org/2000/svg" viewBox="0 0 715.95 430.65"><defs><style>.cls-1,.cls-2{fill:#010101;}.cls-2{fill-rule:evenodd;}</style></defs><path class="cls-2" d="M348.99,1.71c-28,3.88-58.63,26.71-70.53,52.56-23.3,50.63-1.81,105.11,50.02,126.78,5.72,2.39,11.45,5.03,12.72,5.86,4.5,2.96,5.19,1.95,5.45-8.11.3-10.95.55-10.61-11.39-14.93-42.9-15.52-63.7-62.31-44.68-100.51,5.82-11.69,7.8-13.85,5.53-6.01-12.55,43.26,7.53,78.84,49.81,88.32,4.84,1.09,9.14,2.53,9.57,3.21s.78,14.05.79,29.72c.02,24.75.19,28.67,1.37,29.84,1.93,1.93,8.26,1.76,10.79-.29l2.03-1.64.43-28.81c.49-32.62-.26-30.01,9.02-31.44,42.93-6.62,65.35-48.16,50.26-93.16-1.67-4.98.35-2.73,4.95,5.53,21.78,39.05,1.87,88.95-41.9,105-12,4.4-12.39,4.83-12.7,14.18-.3,9.19.33,10.5,4.29,8.92,1.56-.63,6.79-2.6,11.63-4.4,78.47-29.08,83.6-134.27,8.38-172.02-15.36-7.72-37.55-11.14-55.82-8.61M373.47,26.38c45.12,8.19,63.8,58.65,33.11,89.46-12.37,12.43-35.69,21.6-35.69,14.03,0-4.24,1.36-5.73,6.6-7.25,52.82-15.36,41.17-87.16-14.15-87.16s-66.16,70.51-13.92,87.15c6.59,2.1,10.58,9.9,5.06,9.9-12.09,0-32.07-11.97-40.36-24.17-26.19-38.57,11.49-90.63,59.35-81.95M376.05,51.7c30.41,11.59,27.09,52.14-4.73,57.68-30.66,5.34-52.42-22.68-35.75-46.01,8.38-11.73,26.55-16.97,40.48-11.66"/><path class="cls-1" d="M66.78,251.25c17.5,0,32.88,4.35,46.16,13.05l-11.21,23.27c-6.13-3.56-12.72-6.48-19.76-8.76-7.02-2.3-12.92-3.45-17.71-3.45-8.6,0-12.89,2.84-12.89,8.51,0,3.69,2.11,6.65,6.34,8.88,4.24,2.24,9.4,4.16,15.47,5.78,6.09,1.62,12.16,3.57,18.23,5.87,6.09,2.28,11.25,5.99,15.5,11.12,4.24,5.12,6.37,11.58,6.37,19.38,0,11.27-4.41,20.05-13.23,26.34-8.81,6.3-20,9.44-33.61,9.44-9.71,0-19.31-1.66-28.8-5-9.47-3.35-17.71-7.93-24.73-13.73l11.52-22.92c5.92,5.14,12.89,9.35,20.91,12.64,8.03,3.29,15.17,4.94,21.43,4.94,4.78,0,8.51-.85,11.18-2.58,2.69-1.74,4.04-4.29,4.04-7.64s-1.55-5.93-4.63-8.11c-3.07-2.17-6.89-3.79-11.46-4.85-4.56-1.06-9.52-2.47-14.88-4.26-5.34-1.78-10.31-3.73-14.88-5.84-4.58-2.13-8.4-5.51-11.46-10.13-3.07-4.64-4.6-10.19-4.6-16.65,0-10.7,4.26-19.27,12.8-25.69,8.53-6.41,19.83-9.63,33.89-9.63Z"/><path class="cls-1" d="M189.89,331.89v37.8h-29.6v-36.97l-43.33-80.11h29.79l28.27,51.01,27.58-51.01h29.79l-42.49,79.27Z"/><path class="cls-1" d="M351.31,369.69h-26.28l-53.86-72.1v72.1h-27.93v-117.08h26.25l54.05,72.25v-72.25h27.77v117.08Z"/><path class="cls-1" d="M464.22,276.54h-35.29v93.16h-29.79v-93.16h-34.95v-24.1h100.02v24.1Z"/><path class="cls-1" d="M547.5,369.69l-17.4-32.96h-23.42v32.96h-29.76v-117.08h52.34c15.51,0,27.5,3.54,35.97,10.62,8.46,7.07,12.7,17.12,12.7,30.16,0,18.08-7.07,30.63-21.22,37.65l24.57,38.64h-33.8ZM506.69,313.32h22.58c6.48,0,11.5-1.62,15.07-4.85,3.56-3.23,5.34-7.91,5.34-14.04s-1.79-10.6-5.34-13.73c-3.56-3.12-8.59-4.69-15.07-4.69h-22.58v37.31Z"/><path class="cls-1" d="M675.82,348.11h-51.19l-8.51,21.59h-30.63l50.51-117.08h30.63l49.33,117.08h-31.78l-8.36-21.59ZM667.12,325.52l-16.74-43.3-17.05,43.3h33.8Z"/><path class="cls-1" d="M15.95,396.98v15.35c0,2.16.53,3.76,1.58,4.81,1.06,1.04,2.52,1.55,4.41,1.55s3.32-.51,4.38-1.55c1.06-1.06,1.58-2.66,1.58-4.81v-15.35h3.17v15.31c0,2.01-.42,3.71-1.24,5.09-.81,1.39-1.91,2.42-3.29,3.11-1.37.67-2.91.99-4.63.99s-3.28-.33-4.66-.99c-1.39-.68-2.49-1.72-3.29-3.11-.79-1.38-1.18-3.08-1.18-5.09v-15.31h3.17Z"/><path class="cls-1" d="M45.67,401.79c2.31,0,4.19.71,5.62,2.11,1.44,1.41,2.17,3.44,2.17,6.09v11.24h-3.14v-10.81c0-1.88-.48-3.33-1.43-4.35-.96-1.01-2.26-1.52-3.91-1.52s-2.98.53-3.98,1.58c-.99,1.04-1.49,2.55-1.49,4.54v10.56h-3.17v-19.07h3.17v2.7c.64-.97,1.5-1.72,2.58-2.27,1.07-.54,2.27-.81,3.57-.81Z"/><path class="cls-1" d="M60.28,399.06c-.61,0-1.11-.2-1.52-.62-.42-.41-.62-.93-.62-1.55s.2-1.1.62-1.52c.41-.41.92-.62,1.52-.62s1.06.21,1.46.62c.41.42.62.92.62,1.52s-.21,1.14-.62,1.55c-.4.42-.89.62-1.46.62ZM61.81,402.16v19.07h-3.17v-19.07h3.17Z"/><path class="cls-1" d="M74.97,404.77h-4.01v16.46h-3.17v-16.46h-2.45v-2.61h2.45v-1.37c0-2.13.54-3.68,1.65-4.66,1.12-.99,2.9-1.49,5.34-1.49v2.64c-1.41,0-2.41.27-2.98.81-.56.54-.84,1.44-.84,2.7v1.37h4.01v2.61Z"/><path class="cls-1" d="M80.31,399.06c-.61,0-1.11-.2-1.52-.62-.42-.41-.62-.93-.62-1.55s.2-1.1.62-1.52c.41-.41.92-.62,1.52-.62s1.06.21,1.46.62c.41.42.62.92.62,1.52s-.21,1.14-.62,1.55c-.4.42-.89.62-1.46.62ZM81.83,402.16v19.07h-3.17v-19.07h3.17Z"/><path class="cls-1" d="M104.65,410.96c0,.61-.05,1.24-.12,1.93h-15.25c.12,1.89.76,3.35,1.93,4.41,1.18,1.06,2.61,1.58,4.29,1.58,1.37,0,2.5-.32,3.42-.96.93-.64,1.58-1.49,1.96-2.55h3.39c-.5,1.82-1.51,3.32-3.04,4.47-1.54,1.14-3.44,1.71-5.72,1.71-1.8,0-3.42-.4-4.85-1.21s-2.56-1.96-3.39-3.45c-.81-1.51-1.21-3.25-1.21-5.22s.39-3.71,1.18-5.19c.78-1.49,1.89-2.62,3.32-3.42,1.43-.81,3.08-1.21,4.94-1.21s3.39.4,4.78,1.18c1.41.79,2.49,1.88,3.23,3.26.76,1.37,1.15,2.92,1.15,4.66ZM101.36,410.3c0-1.2-.27-2.24-.81-3.11-.52-.87-1.24-1.53-2.17-1.99-.92-.45-1.92-.68-3.01-.68-1.62,0-3,.52-4.13,1.55-1.12,1.02-1.76,2.42-1.89,4.22h12.02Z"/><path class="cls-1" d="M107.64,411.64c0-1.96.39-3.68,1.18-5.16.78-1.47,1.87-2.61,3.26-3.42,1.38-.81,2.94-1.21,4.66-1.21,1.49,0,2.87.34,4.13,1.03,1.28.68,2.25,1.58,2.92,2.7v-10.13h3.2v25.78h-3.2v-3.57c-.62,1.12-1.55,2.05-2.8,2.8-1.23.73-2.66,1.09-4.29,1.09s-3.25-.41-4.63-1.24c-1.39-.85-2.48-2.02-3.26-3.51-.79-1.51-1.18-3.23-1.18-5.16ZM123.79,411.67c0-1.44-.3-2.7-.87-3.76-.58-1.07-1.37-1.89-2.36-2.45-.98-.57-2.05-.87-3.23-.87s-2.26.28-3.23.84c-.98.56-1.76,1.38-2.36,2.45-.58,1.06-.87,2.31-.87,3.76s.29,2.72.87,3.79c.6,1.08,1.38,1.91,2.36,2.49.97.56,2.05.84,3.23.84s2.25-.28,3.23-.84c.99-.57,1.78-1.41,2.36-2.49.57-1.07.87-2.33.87-3.76Z"/><path class="cls-1" d="M156.6,396.98v2.58h-6.62v21.68h-3.17v-21.68h-6.65v-2.58h16.43Z"/><path class="cls-1" d="M163.66,405.24c.56-1.07,1.35-1.91,2.39-2.52,1.03-.62,2.3-.93,3.79-.93v3.29h-.84c-3.56,0-5.34,1.93-5.34,5.78v10.38h-3.17v-19.07h3.17v3.08Z"/><path class="cls-1" d="M172.3,411.64c0-1.96.39-3.68,1.18-5.16.78-1.47,1.87-2.61,3.26-3.42,1.38-.81,2.93-1.21,4.63-1.21s3.09.36,4.32,1.09c1.24.71,2.16,1.61,2.76,2.7v-3.48h3.2v19.07h-3.2v-3.54c-.62,1.1-1.55,2.02-2.8,2.76-1.24.73-2.69,1.09-4.32,1.09s-3.25-.41-4.63-1.24c-1.37-.85-2.45-2.02-3.23-3.51-.79-1.51-1.18-3.23-1.18-5.16ZM188.46,411.67c0-1.44-.3-2.7-.87-3.76-.58-1.07-1.37-1.89-2.36-2.45-.98-.57-2.05-.87-3.23-.87s-2.26.28-3.23.84c-.98.56-1.76,1.38-2.36,2.45-.58,1.06-.87,2.31-.87,3.76s.29,2.72.87,3.79c.6,1.08,1.38,1.91,2.36,2.49.97.56,2.05.84,3.23.84s2.25-.28,3.23-.84c.99-.57,1.78-1.41,2.36-2.49.57-1.07.87-2.33.87-3.76Z"/><path class="cls-1" d="M195.84,411.67c0-1.99.39-3.71,1.18-5.19.78-1.47,1.88-2.61,3.29-3.42,1.41-.81,3.02-1.21,4.85-1.21,2.34,0,4.26.57,5.78,1.71,1.53,1.12,2.53,2.69,3.01,4.72h-3.42c-.31-1.16-.95-2.07-1.89-2.73-.93-.68-2.1-1.03-3.48-1.03-1.82,0-3.29.62-4.41,1.86s-1.68,3.01-1.68,5.28.56,4.08,1.68,5.34c1.12,1.24,2.59,1.86,4.41,1.86,1.38,0,2.53-.32,3.45-.96.93-.66,1.57-1.59,1.93-2.8h3.42c-.52,1.95-1.55,3.51-3.08,4.69-1.54,1.16-3.44,1.74-5.72,1.74-1.82,0-3.44-.4-4.85-1.21-1.41-.81-2.51-1.96-3.29-3.45-.79-1.49-1.18-3.23-1.18-5.22Z"/><path class="cls-1" d="M228.82,421.24l-7.49-8.42v8.42h-3.17v-25.78h3.17v15.16l7.36-8.45h4.41l-8.98,9.51,9.01,9.57h-4.32Z"/><path class="cls-1" d="M237.74,399.06c-.61,0-1.11-.2-1.52-.62-.42-.41-.62-.93-.62-1.55s.2-1.1.62-1.52c.41-.41.92-.62,1.52-.62s1.06.21,1.46.62c.41.42.62.92.62,1.52s-.21,1.14-.62,1.55c-.4.42-.89.62-1.46.62ZM239.26,402.16v19.07h-3.17v-19.07h3.17Z"/><path class="cls-1" d="M253.98,401.79c2.31,0,4.19.71,5.62,2.11,1.44,1.41,2.17,3.44,2.17,6.09v11.24h-3.14v-10.81c0-1.88-.48-3.33-1.43-4.35-.96-1.01-2.26-1.52-3.91-1.52s-2.98.53-3.98,1.58c-.99,1.04-1.49,2.55-1.49,4.54v10.56h-3.17v-19.07h3.17v2.7c.64-.97,1.5-1.72,2.58-2.27,1.07-.54,2.27-.81,3.57-.81Z"/><path class="cls-1" d="M274.84,401.85c1.63,0,3.08.36,4.32,1.09,1.24.71,2.16,1.61,2.76,2.7v-3.48h3.2v19.48c0,1.76-.37,3.31-1.12,4.66-.73,1.37-1.79,2.43-3.17,3.2-1.39.76-3,1.15-4.81,1.15-2.51,0-4.6-.61-6.27-1.8-1.68-1.18-2.66-2.79-2.95-4.81h3.14c.33,1.16,1.04,2.09,2.14,2.8,1.09.7,2.41,1.06,3.95,1.06,1.74,0,3.15-.55,4.26-1.65,1.09-1.08,1.65-2.61,1.65-4.6v-3.98c-.62,1.1-1.55,2.02-2.8,2.76-1.23.75-2.66,1.12-4.29,1.12s-3.25-.41-4.63-1.24c-1.39-.85-2.48-2.02-3.26-3.51-.79-1.51-1.18-3.23-1.18-5.16s.39-3.68,1.18-5.16c.78-1.47,1.87-2.61,3.26-3.42,1.38-.81,2.93-1.21,4.63-1.21ZM281.92,411.67c0-1.44-.3-2.7-.87-3.76-.58-1.07-1.37-1.89-2.36-2.45-.98-.57-2.05-.87-3.23-.87s-2.26.28-3.23.84c-.98.56-1.76,1.38-2.36,2.45-.58,1.06-.87,2.31-.87,3.76s.29,2.72.87,3.79c.6,1.08,1.38,1.91,2.36,2.49.97.56,2.05.84,3.23.84s2.25-.28,3.23-.84c.99-.57,1.78-1.41,2.36-2.49.57-1.07.87-2.33.87-3.76Z"/><path class="cls-1" d="M319.85,396.98l-9.16,24.26h-3.67l-9.13-24.26h3.35l7.64,20.91,7.61-20.91h3.35Z"/><path class="cls-1" d="M324.97,399.06c-.61,0-1.11-.2-1.52-.62-.42-.41-.62-.93-.62-1.55s.2-1.1.62-1.52c.41-.41.92-.62,1.52-.62s1.06.21,1.46.62c.41.42.62.92.62,1.52s-.21,1.14-.62,1.55c-.4.42-.89.62-1.46.62ZM326.5,402.16v19.07h-3.17v-19.07h3.17Z"/><path class="cls-1" d="M338.67,421.55c-1.48,0-2.79-.25-3.95-.75-1.16-.5-2.08-1.19-2.76-2.08-.67-.89-1.03-1.91-1.09-3.08h3.26c.1.93.54,1.71,1.34,2.33.81.61,1.86.9,3.17.9,1.2,0,2.14-.26,2.83-.81.7-.54,1.06-1.21,1.06-2.02s-.37-1.44-1.12-1.86c-.75-.41-1.89-.82-3.45-1.21-1.41-.37-2.56-.75-3.45-1.12-.89-.39-1.66-.96-2.3-1.71-.64-.75-.96-1.74-.96-2.98,0-.97.29-1.86.87-2.67.57-.81,1.4-1.44,2.45-1.93,1.07-.47,2.3-.71,3.67-.71,2.11,0,3.82.54,5.13,1.62,1.3,1.06,2,2.51,2.08,4.35h-3.17c-.06-.99-.47-1.79-1.21-2.39-.73-.6-1.7-.9-2.92-.9-1.14,0-2.05.25-2.73.75-.67.48-.99,1.11-.99,1.89,0,.62.19,1.14.59,1.55.41.42.93.75,1.55.99.62.23,1.47.5,2.55.81,1.38.37,2.5.74,3.35,1.09.85.36,1.58.89,2.21,1.62.62.73.94,1.67.96,2.83,0,1.04-.3,1.98-.87,2.83-.58.83-1.4,1.48-2.45,1.96-1.06.47-2.27.71-3.63.71Z"/><path class="cls-1" d="M351.72,399.06c-.61,0-1.11-.2-1.52-.62-.42-.41-.62-.93-.62-1.55s.2-1.1.62-1.52c.41-.41.92-.62,1.52-.62s1.06.21,1.46.62c.41.42.62.92.62,1.52s-.21,1.14-.62,1.55c-.4.42-.89.62-1.46.62ZM353.24,402.16v19.07h-3.17v-19.07h3.17Z"/><path class="cls-1" d="M361.81,405.71c.66-1.13,1.62-2.06,2.86-2.76,1.26-.72,2.69-1.09,4.29-1.09,1.72,0,3.26.4,4.63,1.21s2.44,1.95,3.23,3.42c.81,1.48,1.21,3.19,1.21,5.16s-.4,3.65-1.21,5.16c-.79,1.49-1.88,2.66-3.26,3.51-1.37.83-2.9,1.24-4.6,1.24s-3.08-.35-4.32-1.06c-1.24-.72-2.19-1.65-2.83-2.76v3.51h-3.17v-25.78h3.17v10.25ZM374.76,411.64c0-1.44-.3-2.7-.87-3.76-.58-1.07-1.37-1.89-2.36-2.45-.98-.56-2.05-.84-3.23-.84s-2.24.3-3.23.87c-.99.56-1.79,1.38-2.39,2.45-.58,1.08-.87,2.33-.87,3.76s.29,2.69.87,3.76c.6,1.08,1.4,1.91,2.39,2.49.99.56,2.07.84,3.23.84s2.25-.28,3.23-.84c.99-.57,1.78-1.41,2.36-2.49.57-1.07.87-2.34.87-3.79Z"/><path class="cls-1" d="M383.83,399.06c-.61,0-1.11-.2-1.52-.62-.42-.41-.62-.93-.62-1.55s.2-1.1.62-1.52c.41-.41.92-.62,1.52-.62s1.06.21,1.46.62c.41.42.62.92.62,1.52s-.21,1.14-.62,1.55c-.4.42-.89.62-1.46.62ZM385.35,402.16v19.07h-3.17v-19.07h3.17Z"/><path class="cls-1" d="M393.91,395.45v25.78h-3.17v-25.78h3.17Z"/><path class="cls-1" d="M400.96,399.06c-.61,0-1.11-.2-1.52-.62-.42-.41-.62-.93-.62-1.55s.2-1.1.62-1.52c.41-.41.92-.62,1.52-.62s1.06.21,1.46.62c.41.42.62.92.62,1.52s-.21,1.14-.62,1.55c-.4.42-.89.62-1.46.62ZM402.48,402.16v19.07h-3.17v-19.07h3.17Z"/><path class="cls-1" d="M411.76,404.77v11.24c0,.93.19,1.6.59,1.99.39.37,1.07.56,2.05.56h2.33v2.67h-2.86c-1.76,0-3.09-.4-3.98-1.21-.87-.81-1.3-2.14-1.3-4.01v-11.24h-2.49v-2.61h2.49v-4.81h3.17v4.81h4.97v2.61h-4.97Z"/><path class="cls-1" d="M436.99,402.16l-11.49,28.05h-3.26l3.76-9.19-7.7-18.86h3.54l5.96,15.44,5.93-15.44h3.26Z"/><path class="cls-1" d="M451.1,399.06c-.61,0-1.11-.2-1.52-.62-.42-.41-.62-.93-.62-1.55s.2-1.1.62-1.52c.41-.41.92-.62,1.52-.62s1.06.21,1.46.62c.41.42.62.92.62,1.52s-.21,1.14-.62,1.55c-.4.42-.89.62-1.46.62ZM452.63,402.16v19.07h-3.17v-19.07h3.17Z"/><path class="cls-1" d="M467.34,401.79c2.31,0,4.19.71,5.62,2.11,1.44,1.41,2.17,3.44,2.17,6.09v11.24h-3.14v-10.81c0-1.88-.48-3.33-1.43-4.35-.96-1.01-2.26-1.52-3.91-1.52s-2.98.53-3.98,1.58c-.99,1.04-1.49,2.55-1.49,4.54v10.56h-3.17v-19.07h3.17v2.7c.64-.97,1.5-1.72,2.58-2.27,1.07-.54,2.27-.81,3.57-.81Z"/><path class="cls-1" d="M500.64,421.49c-2.26,0-4.32-.53-6.18-1.58s-3.34-2.52-4.41-4.41c-1.08-1.9-1.62-4.04-1.62-6.4s.54-4.51,1.62-6.4c1.07-1.88,2.55-3.35,4.41-4.41s3.92-1.58,6.18-1.58,4.32.53,6.18,1.58,3.32,2.53,4.38,4.41c1.07,1.86,1.62,4,1.62,6.4s-.54,4.52-1.62,6.4c-1.06,1.89-2.52,3.35-4.38,4.41s-3.93,1.58-6.18,1.58ZM500.64,418.72c1.68,0,3.2-.39,4.57-1.18,1.37-.78,2.43-1.9,3.2-3.35.78-1.47,1.18-3.17,1.18-5.09s-.4-3.64-1.18-5.09c-.77-1.47-1.82-2.59-3.17-3.39-1.35-.78-2.88-1.18-4.6-1.18s-3.25.4-4.6,1.18c-1.35.79-2.42,1.92-3.2,3.39-.79,1.45-1.18,3.15-1.18,5.09s.39,3.63,1.18,5.09c.78,1.45,1.85,2.57,3.2,3.35,1.37.79,2.9,1.18,4.6,1.18Z"/><path class="cls-1" d="M526.3,401.79c2.31,0,4.19.71,5.62,2.11,1.44,1.41,2.17,3.44,2.17,6.09v11.24h-3.14v-10.81c0-1.88-.48-3.33-1.43-4.35-.96-1.01-2.26-1.52-3.91-1.52s-2.98.53-3.98,1.58c-.99,1.04-1.49,2.55-1.49,4.54v10.56h-3.17v-19.07h3.17v2.7c.64-.97,1.5-1.72,2.58-2.27,1.07-.54,2.27-.81,3.57-.81Z"/><path class="cls-1" d="M556.69,410.96c0,.61-.05,1.24-.12,1.93h-15.25c.12,1.89.76,3.35,1.93,4.41,1.18,1.06,2.61,1.58,4.29,1.58,1.37,0,2.5-.32,3.42-.96.93-.64,1.58-1.49,1.96-2.55h3.39c-.5,1.82-1.51,3.32-3.04,4.47-1.54,1.14-3.44,1.71-5.72,1.71-1.8,0-3.42-.4-4.85-1.21s-2.56-1.96-3.39-3.45c-.81-1.51-1.21-3.25-1.21-5.22s.39-3.71,1.18-5.19c.78-1.49,1.89-2.62,3.32-3.42,1.43-.81,3.08-1.21,4.94-1.21s3.39.4,4.78,1.18c1.41.79,2.49,1.88,3.23,3.26.76,1.37,1.15,2.92,1.15,4.66ZM553.4,410.3c0-1.2-.27-2.24-.81-3.11-.52-.87-1.24-1.53-2.17-1.99-.92-.45-1.92-.68-3.01-.68-1.62,0-3,.52-4.13,1.55-1.12,1.02-1.76,2.42-1.89,4.22h12.02Z"/><path class="cls-1" d="M586.4,404.06c0,2.03-.7,3.72-2.08,5.06-1.39,1.33-3.49,1.99-6.31,1.99h-4.69v10.13h-3.17v-24.26h7.86c2.73,0,4.81.67,6.24,1.99,1.43,1.3,2.14,3.01,2.14,5.09ZM578.01,408.5c1.76,0,3.05-.38,3.88-1.15.82-.76,1.24-1.86,1.24-3.29,0-2.98-1.71-4.47-5.13-4.47h-4.69v8.92h4.69Z"/><path class="cls-1" d="M593.49,395.45v25.78h-3.17v-25.78h3.17Z"/><path class="cls-1" d="M597.7,411.64c0-1.96.39-3.68,1.18-5.16.78-1.47,1.87-2.61,3.26-3.42,1.38-.81,2.93-1.21,4.63-1.21s3.09.36,4.32,1.09c1.24.71,2.16,1.61,2.76,2.7v-3.48h3.2v19.07h-3.2v-3.54c-.62,1.1-1.55,2.02-2.8,2.76-1.24.73-2.69,1.09-4.32,1.09s-3.25-.41-4.63-1.24c-1.37-.85-2.45-2.02-3.23-3.51-.79-1.51-1.18-3.23-1.18-5.16ZM613.86,411.67c0-1.44-.3-2.7-.87-3.76-.58-1.07-1.37-1.89-2.36-2.45-.98-.57-2.05-.87-3.23-.87s-2.26.28-3.23.84c-.98.56-1.76,1.38-2.36,2.45-.58,1.06-.87,2.31-.87,3.76s.29,2.72.87,3.79c.6,1.08,1.38,1.91,2.36,2.49.97.56,2.05.84,3.23.84s2.25-.28,3.23-.84c.99-.57,1.78-1.41,2.36-2.49.57-1.07.87-2.33.87-3.76Z"/><path class="cls-1" d="M626.31,404.77v11.24c0,.93.19,1.6.59,1.99.39.37,1.07.56,2.05.56h2.33v2.67h-2.86c-1.76,0-3.09-.4-3.98-1.21-.87-.81-1.3-2.14-1.3-4.01v-11.24h-2.49v-2.61h2.49v-4.81h3.17v4.81h4.97v2.61h-4.97Z"/><path class="cls-1" d="M642.87,404.77h-4.01v16.46h-3.17v-16.46h-2.45v-2.61h2.45v-1.37c0-2.13.54-3.68,1.65-4.66,1.12-.99,2.9-1.49,5.34-1.49v2.64c-1.41,0-2.41.27-2.98.81-.56.54-.84,1.44-.84,2.7v1.37h4.01v2.61Z"/><path class="cls-1" d="M654.88,421.55c-1.79,0-3.4-.4-4.85-1.21-1.45-.81-2.59-1.96-3.42-3.45-.83-1.51-1.24-3.25-1.24-5.22s.42-3.67,1.27-5.16c.85-1.51,2-2.66,3.45-3.45,1.47-.81,3.11-1.21,4.94-1.21s3.42.4,4.88,1.21c1.47.79,2.62,1.93,3.48,3.42.85,1.48,1.27,3.2,1.27,5.19s-.43,3.71-1.3,5.22c-.87,1.49-2.05,2.64-3.54,3.45-1.48.81-3.12,1.21-4.94,1.21ZM654.88,418.75c1.13,0,2.21-.26,3.2-.78,1.01-.54,1.82-1.34,2.42-2.39.62-1.07.93-2.38.93-3.91s-.3-2.83-.9-3.88c-.61-1.07-1.39-1.87-2.36-2.39-.98-.54-2.03-.81-3.17-.81s-2.23.27-3.2.81c-.96.52-1.73,1.32-2.33,2.39-.58,1.06-.87,2.35-.87,3.88s.28,2.87.84,3.95c.57,1.06,1.34,1.85,2.3,2.36.95.52,2,.78,3.14.78Z"/><path class="cls-1" d="M672.01,405.24c.56-1.07,1.35-1.91,2.39-2.52,1.03-.62,2.3-.93,3.79-.93v3.29h-.84c-3.56,0-5.34,1.93-5.34,5.78v10.38h-3.17v-19.07h3.17v3.08Z"/><path class="cls-1" d="M704.79,401.79c1.49,0,2.81.31,3.98.93,1.16.62,2.07,1.55,2.73,2.8.68,1.23,1.03,2.72,1.03,4.47v11.24h-3.14v-10.81c0-1.88-.48-3.33-1.43-4.35-.93-1.01-2.2-1.52-3.79-1.52s-2.97.53-3.95,1.58c-.98,1.06-1.46,2.58-1.46,4.57v10.53h-3.14v-10.81c0-1.88-.48-3.33-1.43-4.35-.93-1.01-2.2-1.52-3.79-1.52s-2.97.53-3.95,1.58c-.98,1.06-1.46,2.58-1.46,4.57v10.53h-3.17v-19.07h3.17v2.73c.64-.99,1.49-1.76,2.55-2.3,1.06-.54,2.21-.81,3.48-.81,1.62,0,3.03.36,4.26,1.09,1.22.73,2.14,1.79,2.76,3.17.51-1.34,1.38-2.39,2.61-3.14,1.24-.75,2.62-1.12,4.13-1.12Z"/></svg>