<?xml version="1.0" encoding="UTF-8"?><svg id="Black_Syntra_w_x2F__words" xmlns="http://www.w3.org/2000/svg" viewBox="0 0 792 269.94"><defs><style>.cls-1,.cls-2{fill:#010101;}.cls-2{fill-rule:evenodd;}</style></defs><path class="cls-1" d="M237.78,77.82c14.28,0,26.85,3.56,37.68,10.67l-9.17,18.97c-5.01-2.92-10.38-5.32-16.13-7.18-5.72-1.85-10.53-2.79-14.42-2.79-7.01,0-10.51,2.33-10.51,6.97,0,3,1.72,5.41,5.15,7.24,3.46,1.82,7.68,3.4,12.65,4.72,4.96,1.33,9.92,2.92,14.85,4.77,4.96,1.86,9.18,4.88,12.65,9.06,3.46,4.18,5.2,9.46,5.2,15.81,0,9.22-3.59,16.4-10.77,21.55-7.18,5.12-16.33,7.66-27.44,7.66-7.91,0-15.73-1.35-23.48-4.07-7.72-2.71-14.46-6.45-20.21-11.2l9.43-18.71c4.82,4.18,10.51,7.64,17.04,10.34,6.57,2.68,12.39,4.02,17.47,4.02,3.93,0,6.98-.7,9.17-2.09,2.17-1.42,3.27-3.51,3.27-6.27,0-2.6-1.26-4.8-3.75-6.59-2.51-1.78-5.63-3.11-9.38-3.97-3.73-.86-7.76-2.01-12.11-3.48-4.37-1.46-8.42-3.06-12.17-4.77-3.73-1.72-6.83-4.46-9.33-8.25-2.51-3.78-3.75-8.31-3.75-13.56,0-8.75,3.46-15.73,10.4-20.96,6.97-5.25,16.19-7.88,27.66-7.88Z"/><path class="cls-1" d="M338.2,143.64v30.82h-24.12v-30.18l-35.38-65.34h24.28l23.1,41.59,22.51-41.59h24.28l-34.68,64.69Z"/><path class="cls-1" d="M469.91,174.46h-21.44l-43.95-58.8v58.8h-22.78v-95.51h21.44l44.06,58.96v-58.96h22.67v95.51Z"/><path class="cls-1" d="M562,98.45h-28.78v76h-24.28v-76h-28.51v-19.67h81.58v19.67Z"/><path class="cls-1" d="M630,174.46l-14.2-26.91h-19.13v26.91h-24.28v-95.51h42.72c12.65,0,22.42,2.89,29.32,8.68,6.93,5.76,10.4,13.96,10.4,24.6,0,14.73-5.78,24.96-17.31,30.71l20.05,31.52h-27.55ZM596.66,128.47h18.44c5.28,0,9.38-1.31,12.27-3.97,2.92-2.64,4.4-6.46,4.4-11.47s-1.47-8.6-4.4-11.15c-2.89-2.57-6.99-3.86-12.27-3.86h-18.44v30.44Z"/><path class="cls-1" d="M734.64,156.88h-41.75l-6.97,17.58h-24.98l41.22-95.51h24.98l40.25,95.51h-25.94l-6.81-17.58ZM727.56,138.44l-13.67-35.38-13.94,35.38h27.6Z"/><path class="cls-2" d="M91.42,68.94c-18.6,2.57-38.97,17.74-46.87,34.93-15.49,33.65-1.21,69.87,33.24,84.27,3.81,1.58,7.61,3.34,8.46,3.9,3,1.96,3.44,1.29,3.63-5.39.19-7.29.36-7.06-7.57-9.93-28.51-10.32-42.34-41.42-29.71-66.81,3.86-7.77,5.19-9.21,3.67-3.99-8.33,28.74,5,52.39,33.11,58.7,3.22.72,6.07,1.67,6.36,2.13.28.44.52,9.34.52,19.75,0,16.45.12,19.05.91,19.84,1.27,1.27,5.48,1.17,7.17-.2l1.35-1.09.28-19.15c.32-21.68-.17-19.94,5.99-20.89,28.54-4.41,43.43-32.03,33.41-61.92-1.11-3.31.23-1.82,3.3,3.67,14.47,25.94,1.25,59.12-27.86,69.79-7.97,2.92-8.23,3.22-8.44,9.43-.19,6.1.23,6.97,2.85,5.92,1.03-.42,4.52-1.73,7.73-2.92,52.15-19.32,55.56-89.24,5.57-114.34-10.22-5.13-24.96-7.4-37.12-5.72M107.7,85.33c29.99,5.44,42.4,38.98,22,59.47-8.21,8.25-23.72,14.35-23.72,9.33,0-2.81.9-3.81,4.38-4.82,35.11-10.21,27.36-57.94-9.41-57.94s-43.98,46.87-9.25,57.93c4.37,1.39,7.02,6.58,3.36,6.58-8.04,0-21.32-7.95-26.83-16.05-17.42-25.65,7.64-60.25,39.45-54.48M109.4,102.18c20.22,7.7,18.01,34.64-3.14,38.32-20.38,3.55-34.84-15.07-23.76-30.58,5.57-7.8,17.65-11.28,26.89-7.75"/><path class="cls-1" d="M194.09,187.75v12.6c0,1.8.43,3.11,1.29,3.97s2.05,1.29,3.59,1.29,2.73-.43,3.59-1.29c.88-.86,1.34-2.17,1.34-3.97v-12.6h2.57v12.6c0,1.65-.35,3.04-1.02,4.18-.64,1.15-1.54,2.01-2.68,2.57-1.15.54-2.41.8-3.81.8s-2.72-.27-3.86-.8c-1.11-.56-2.01-1.42-2.68-2.57-.64-1.14-.96-2.53-.96-4.18v-12.6h2.63Z"/><path class="cls-1" d="M218.49,191.71c1.89,0,3.43.59,4.61,1.77,1.18,1.15,1.77,2.81,1.77,4.98v9.22h-2.57v-8.9c0-1.53-.4-2.71-1.18-3.54-.79-.86-1.85-1.29-3.16-1.29-1.39,0-2.51.43-3.32,1.29-.79.86-1.18,2.12-1.18,3.75v8.68h-2.63v-15.7h2.63v2.25c.5-.78,1.19-1.39,2.09-1.82.88-.46,1.88-.7,2.95-.7Z"/><path class="cls-1" d="M230.48,189.46c-.51,0-.94-.16-1.29-.48-.32-.35-.48-.78-.48-1.29s.16-.91.48-1.23c.35-.35.78-.54,1.29-.54s.91.19,1.23.54c.32.32.48.74.48,1.23s-.16.94-.48,1.29c-.32.32-.74.48-1.23.48ZM231.76,191.98v15.7h-2.63v-15.7h2.63Z"/><path class="cls-1" d="M242.55,194.12h-3.27v13.56h-2.63v-13.56h-2.04v-2.14h2.04v-1.07c0-1.78.44-3.07,1.34-3.86.92-.82,2.39-1.23,4.4-1.23v2.2c-1.15,0-1.96.24-2.41.7-.47.43-.7,1.17-.7,2.2v1.07h3.27v2.14Z"/><path class="cls-1" d="M246.93,189.46c-.51,0-.94-.16-1.29-.48-.32-.35-.48-.78-.48-1.29s.16-.91.48-1.23c.35-.35.78-.54,1.29-.54s.91.19,1.23.54c.32.32.48.74.48,1.23s-.16.94-.48,1.29c-.32.32-.74.48-1.23.48ZM248.21,191.98v15.7h-2.63v-15.7h2.63Z"/><path class="cls-1" d="M266.93,199.22c0,.51-.03,1.05-.05,1.61h-12.54c.07,1.54.59,2.76,1.55,3.64.96.86,2.14,1.29,3.54,1.29,1.1,0,2.04-.27,2.79-.8s1.29-1.23,1.61-2.09h2.79c-.43,1.5-1.27,2.73-2.52,3.7-1.26.94-2.81,1.39-4.66,1.39-1.5,0-2.84-.33-4.02-1.02-1.18-.67-2.12-1.62-2.79-2.84-.64-1.21-.96-2.64-.96-4.29s.32-3.01.96-4.23c.64-1.25,1.55-2.2,2.73-2.84s2.53-.96,4.07-.96c1.46,0,2.76.32,3.91.96,1.14.64,2.01,1.54,2.63,2.68.64,1.11.96,2.39.96,3.81ZM264.25,198.68c0-.96-.24-1.8-.7-2.52-.43-.71-1.02-1.25-1.77-1.61-.75-.39-1.58-.59-2.47-.59-1.33,0-2.45.43-3.38,1.29-.94.83-1.47,1.97-1.61,3.43h9.92Z"/><path class="cls-1" d="M269.39,199.81c0-1.61.32-3.01.96-4.23.64-1.21,1.53-2.14,2.68-2.79,1.14-.67,2.41-1.02,3.81-1.02,1.25,0,2.39.29,3.43.86,1.03.54,1.84,1.27,2.41,2.2v-8.31h2.63v21.17h-2.63v-2.95c-.54.94-1.31,1.7-2.3,2.3-1,.62-2.18.91-3.54.91s-2.67-.33-3.81-1.02c-1.15-.71-2.04-1.67-2.68-2.89-.64-1.25-.96-2.65-.96-4.23ZM282.69,199.81c0-1.18-.25-2.2-.75-3.06-.47-.88-1.11-1.57-1.93-2.04-.79-.46-1.69-.7-2.68-.7s-1.86.24-2.68.7c-.79.43-1.42,1.1-1.88,1.98-.47.9-.7,1.93-.7,3.11s.23,2.22.7,3.11c.46.9,1.09,1.58,1.88,2.04.82.47,1.72.7,2.68.7s1.89-.23,2.68-.7c.82-.46,1.46-1.14,1.93-2.04.5-.88.75-1.93.75-3.11Z"/><path class="cls-1" d="M309.61,187.75v2.09h-5.41v17.85h-2.63v-17.85h-5.47v-2.09h13.51Z"/><path class="cls-1" d="M315.44,194.55c.46-.88,1.1-1.58,1.93-2.09.86-.5,1.89-.75,3.11-.75v2.68h-.7c-2.89,0-4.34,1.59-4.34,4.77v8.52h-2.63v-15.7h2.63v2.57Z"/><path class="cls-1" d="M322.52,199.81c0-1.61.32-3.01.96-4.23.64-1.21,1.53-2.14,2.68-2.79,1.14-.67,2.41-1.02,3.81-1.02s2.53.31,3.54.91c1.03.58,1.8,1.31,2.3,2.2v-2.89h2.63v15.7h-2.63v-2.89c-.54.9-1.33,1.65-2.36,2.25-1,.62-2.18.91-3.54.91s-2.67-.33-3.81-1.02c-1.11-.71-1.98-1.67-2.63-2.89-.64-1.25-.96-2.65-.96-4.23ZM335.81,199.81c0-1.18-.25-2.2-.75-3.06-.47-.88-1.11-1.57-1.93-2.04-.79-.46-1.69-.7-2.68-.7s-1.86.24-2.68.7c-.79.43-1.42,1.1-1.88,1.98-.47.9-.7,1.93-.7,3.11s.23,2.22.7,3.11c.46.9,1.09,1.58,1.88,2.04.82.47,1.72.7,2.68.7s1.89-.23,2.68-.7c.82-.46,1.46-1.14,1.93-2.04.5-.88.75-1.93.75-3.11Z"/><path class="cls-1" d="M341.86,199.81c0-1.61.32-3.01.96-4.23.64-1.21,1.53-2.14,2.68-2.79,1.18-.67,2.52-1.02,4.02-1.02,1.89,0,3.46.47,4.72,1.39,1.25.94,2.09,2.22,2.52,3.86h-2.84c-.25-.92-.78-1.66-1.55-2.2-.75-.56-1.7-.86-2.84-.86-1.5,0-2.72.52-3.64,1.55-.9,1-1.34,2.44-1.34,4.29s.44,3.36,1.34,4.4c.92,1.05,2.14,1.55,3.64,1.55,1.14,0,2.09-.27,2.84-.8s1.26-1.3,1.55-2.3h2.84c-.43,1.61-1.29,2.89-2.57,3.86-1.26.96-2.81,1.45-4.66,1.45-1.5,0-2.84-.33-4.02-1.02-1.15-.67-2.04-1.62-2.68-2.84-.64-1.21-.96-2.64-.96-4.29Z"/><path class="cls-1" d="M368.98,207.69l-6.16-6.91v6.91h-2.63v-21.17h2.63v12.43l6-6.97h3.64l-7.4,7.83,7.45,7.88h-3.54Z"/><path class="cls-1" d="M376.26,189.46c-.51,0-.94-.16-1.29-.48-.32-.35-.48-.78-.48-1.29s.16-.91.48-1.23c.35-.35.78-.54,1.29-.54s.91.19,1.23.54c.32.32.48.74.48,1.23s-.16.94-.48,1.29c-.32.32-.74.48-1.23.48ZM377.55,191.98v15.7h-2.63v-15.7h2.63Z"/><path class="cls-1" d="M389.62,191.71c1.89,0,3.43.59,4.61,1.77,1.18,1.15,1.77,2.81,1.77,4.98v9.22h-2.57v-8.9c0-1.53-.4-2.71-1.18-3.54-.79-.86-1.85-1.29-3.16-1.29-1.39,0-2.51.43-3.32,1.29-.79.86-1.18,2.12-1.18,3.75v8.68h-2.63v-15.7h2.63v2.25c.5-.78,1.19-1.39,2.09-1.82.88-.46,1.88-.7,2.95-.7Z"/><path class="cls-1" d="M406.75,191.77c1.35,0,2.53.31,3.54.91,1.03.58,1.8,1.31,2.3,2.2v-2.89h2.63v16.03c0,1.42-.31,2.69-.91,3.81-.62,1.14-1.49,2.01-2.63,2.63-1.15.64-2.47.96-3.97.96-2.08,0-3.81-.48-5.2-1.45-1.37-.96-2.17-2.29-2.41-3.97h2.63c.28.92.87,1.67,1.77,2.25.88.6,1.96.91,3.22.91,1.42,0,2.59-.46,3.48-1.34.92-.9,1.39-2.17,1.39-3.81v-3.27c-.54.94-1.31,1.7-2.3,2.3-1,.62-2.18.91-3.54.91s-2.67-.33-3.81-1.02c-1.15-.71-2.04-1.67-2.68-2.89-.64-1.25-.96-2.65-.96-4.23s.32-3.01.96-4.23c.64-1.21,1.53-2.14,2.68-2.79,1.14-.67,2.41-1.02,3.81-1.02ZM412.59,199.81c0-1.18-.25-2.2-.75-3.06-.47-.88-1.11-1.57-1.93-2.04-.79-.46-1.69-.7-2.68-.7s-1.86.24-2.68.7c-.79.43-1.42,1.1-1.88,1.98-.47.9-.7,1.93-.7,3.11s.23,2.22.7,3.11c.46.9,1.09,1.58,1.88,2.04.82.47,1.72.7,2.68.7s1.89-.23,2.68-.7c.82-.46,1.46-1.14,1.93-2.04.5-.88.75-1.93.75-3.11Z"/><path class="cls-1" d="M443.75,187.75l-7.56,19.94h-3l-7.5-19.94h2.79l6.22,17.21,6.27-17.21h2.79Z"/><path class="cls-1" d="M447.92,189.46c-.51,0-.94-.16-1.29-.48-.32-.35-.48-.78-.48-1.29s.16-.91.48-1.23c.35-.35.78-.54,1.29-.54s.91.19,1.23.54c.32.32.48.74.48,1.23s-.16.94-.48,1.29c-.32.32-.74.48-1.23.48ZM449.21,191.98v15.7h-2.63v-15.7h2.63Z"/><path class="cls-1" d="M459.19,207.95c-1.22,0-2.3-.2-3.27-.59-.94-.43-1.69-.99-2.25-1.72-.54-.75-.84-1.61-.91-2.57h2.68c.07.79.43,1.43,1.07,1.93.67.51,1.55.75,2.63.75.99,0,1.78-.21,2.36-.64.56-.46.86-1.03.86-1.72s-.31-1.18-.91-1.5c-.62-.32-1.55-.66-2.84-1.02-1.18-.28-2.14-.59-2.89-.91-.72-.32-1.34-.78-1.88-1.39-.51-.6-.75-1.42-.75-2.47,0-.78.23-1.51.7-2.2.5-.67,1.18-1.19,2.04-1.55.88-.39,1.89-.59,3-.59,1.74,0,3.16.46,4.23,1.34,1.07.86,1.63,2.04,1.72,3.54h-2.63c-.04-.82-.36-1.46-.96-1.93-.62-.5-1.42-.75-2.41-.75-.94,0-1.69.2-2.25.59-.54.4-.8.91-.8,1.55,0,.54.16.96.48,1.29s.72.59,1.23.8c.54.21,1.25.46,2.14.7,1.1.29,2.01.59,2.73.91.71.29,1.31.74,1.82,1.34.5.58.76,1.33.8,2.25,0,.86-.25,1.65-.75,2.36-.47.68-1.15,1.22-2.04,1.61-.86.39-1.85.59-2.95.59Z"/><path class="cls-1" d="M469.89,189.46c-.51,0-.94-.16-1.29-.48-.32-.35-.48-.78-.48-1.29s.16-.91.48-1.23c.35-.35.78-.54,1.29-.54s.91.19,1.23.54c.32.32.48.74.48,1.23s-.16.94-.48,1.29c-.32.32-.74.48-1.23.48ZM471.18,191.98v15.7h-2.63v-15.7h2.63Z"/><path class="cls-1" d="M478.21,194.93c.54-.92,1.3-1.67,2.3-2.25,1.03-.6,2.21-.91,3.54-.91,1.42,0,2.69.35,3.81,1.02,1.14.64,2.04,1.58,2.68,2.79.64,1.22.96,2.63.96,4.23s-.32,2.99-.96,4.23c-.64,1.22-1.54,2.18-2.68,2.89-1.15.68-2.41,1.02-3.81,1.02s-2.56-.28-3.59-.86c-1-.6-1.76-1.37-2.25-2.3v2.89h-2.63v-21.17h2.63v8.42ZM488.83,199.81c0-1.18-.24-2.21-.7-3.11-.47-.88-1.11-1.55-1.93-1.98-.83-.46-1.72-.7-2.68-.7s-1.86.24-2.68.7c-.79.47-1.43,1.15-1.93,2.04-.47.9-.7,1.92-.7,3.06s.23,2.22.7,3.11c.5.9,1.14,1.58,1.93,2.04.82.47,1.72.7,2.68.7s1.85-.23,2.68-.7c.82-.46,1.46-1.14,1.93-2.04.46-.88.7-1.93.7-3.11Z"/><path class="cls-1" d="M496.27,189.46c-.51,0-.94-.16-1.29-.48-.32-.35-.48-.78-.48-1.29s.16-.91.48-1.23c.35-.35.78-.54,1.29-.54s.91.19,1.23.54c.32.32.48.74.48,1.23s-.16.94-.48,1.29c-.32.32-.74.48-1.23.48ZM497.55,191.98v15.7h-2.63v-15.7h2.63Z"/><path class="cls-1" d="M504.59,186.51v21.17h-2.63v-21.17h2.63Z"/><path class="cls-1" d="M510.34,189.46c-.51,0-.94-.16-1.29-.48-.32-.35-.48-.78-.48-1.29s.16-.91.48-1.23c.35-.35.78-.54,1.29-.54s.91.19,1.23.54c.32.32.48.74.48,1.23s-.16.94-.48,1.29c-.32.32-.74.48-1.23.48ZM511.63,191.98v15.7h-2.63v-15.7h2.63Z"/><path class="cls-1" d="M519.2,194.12v9.27c0,.75.16,1.29.48,1.61.35.32.92.48,1.72.48h1.93v2.2h-2.36c-1.47,0-2.56-.32-3.27-.96-.72-.67-1.07-1.78-1.07-3.32v-9.27h-2.04v-2.14h2.04v-3.91h2.57v3.91h4.13v2.14h-4.13Z"/><path class="cls-1" d="M539.96,191.98l-9.43,23.1h-2.68l3.06-7.56-6.32-15.54h2.89l4.93,12.7,4.88-12.7h2.68Z"/><path class="cls-1" d="M551.54,189.46c-.51,0-.94-.16-1.29-.48-.32-.35-.48-.78-.48-1.29s.16-.91.48-1.23c.35-.35.78-.54,1.29-.54s.91.19,1.23.54c.32.32.48.74.48,1.23s-.16.94-.48,1.29c-.32.32-.74.48-1.23.48ZM552.82,191.98v15.7h-2.63v-15.7h2.63Z"/><path class="cls-1" d="M564.9,191.71c1.89,0,3.43.59,4.61,1.77,1.18,1.15,1.77,2.81,1.77,4.98v9.22h-2.57v-8.9c0-1.53-.4-2.71-1.18-3.54-.79-.86-1.85-1.29-3.16-1.29-1.39,0-2.51.43-3.32,1.29-.79.86-1.18,2.12-1.18,3.75v8.68h-2.63v-15.7h2.63v2.25c.5-.78,1.19-1.39,2.09-1.82.88-.46,1.88-.7,2.95-.7Z"/><path class="cls-1" d="M592.24,207.9c-1.86,0-3.56-.43-5.09-1.29-1.5-.88-2.71-2.1-3.59-3.64-.9-1.57-1.34-3.32-1.34-5.25s.44-3.71,1.34-5.25c.88-1.57,2.09-2.79,3.59-3.64,1.53-.86,3.23-1.29,5.09-1.29s3.55.43,5.09,1.29c1.53.86,2.73,2.08,3.59,3.64.88,1.54,1.34,3.3,1.34,5.25s-.46,3.73-1.34,5.25c-.86,1.54-2.06,2.76-3.59,3.64-1.54.86-3.24,1.29-5.09,1.29ZM592.24,205.65c1.39,0,2.64-.32,3.75-.96,1.1-.67,1.98-1.61,2.63-2.79.64-1.21.96-2.6.96-4.18s-.32-3-.96-4.18c-.64-1.21-1.53-2.14-2.63-2.79-1.11-.64-2.36-.96-3.75-.96s-2.71.32-3.81.96c-1.11.64-1.98,1.58-2.63,2.79-.62,1.18-.91,2.57-.91,4.18s.29,2.97.91,4.18c.64,1.18,1.51,2.12,2.63,2.79,1.14.64,2.41.96,3.81.96Z"/><path class="cls-1" d="M613.33,191.71c1.89,0,3.43.59,4.61,1.77,1.18,1.15,1.77,2.81,1.77,4.98v9.22h-2.57v-8.9c0-1.53-.4-2.71-1.18-3.54-.79-.86-1.85-1.29-3.16-1.29-1.39,0-2.51.43-3.32,1.29-.79.86-1.18,2.12-1.18,3.75v8.68h-2.63v-15.7h2.63v2.25c.5-.78,1.19-1.39,2.09-1.82.88-.46,1.88-.7,2.95-.7Z"/><path class="cls-1" d="M638.28,199.22c0,.51-.03,1.05-.05,1.61h-12.54c.07,1.54.59,2.76,1.55,3.64.96.86,2.14,1.29,3.54,1.29,1.1,0,2.04-.27,2.79-.8s1.29-1.23,1.61-2.09h2.79c-.43,1.5-1.27,2.73-2.52,3.7-1.26.94-2.81,1.39-4.66,1.39-1.5,0-2.84-.33-4.02-1.02-1.18-.67-2.12-1.62-2.79-2.84-.64-1.21-.96-2.64-.96-4.29s.32-3.01.96-4.23c.64-1.25,1.55-2.2,2.73-2.84s2.53-.96,4.07-.96c1.46,0,2.76.32,3.91.96,1.14.64,2.01,1.54,2.63,2.68.64,1.11.96,2.39.96,3.81ZM635.6,198.68c0-.96-.24-1.8-.7-2.52-.43-.71-1.02-1.25-1.77-1.61-.75-.39-1.58-.59-2.47-.59-1.33,0-2.45.43-3.38,1.29-.94.83-1.47,1.97-1.61,3.43h9.92Z"/><path class="cls-1" d="M662.69,193.59c0,1.65-.58,3.03-1.72,4.13-1.15,1.11-2.88,1.66-5.2,1.66h-3.81v8.31h-2.63v-19.94h6.43c2.25,0,3.97.56,5.15,1.66,1.18,1.07,1.77,2.47,1.77,4.18ZM655.78,197.23c1.46,0,2.53-.32,3.22-.96.67-.64,1.02-1.53,1.02-2.68,0-2.47-1.42-3.7-4.23-3.7h-3.81v7.34h3.81Z"/><path class="cls-1" d="M668.54,186.51v21.17h-2.63v-21.17h2.63Z"/><path class="cls-1" d="M671.98,199.81c0-1.61.32-3.01.96-4.23.64-1.21,1.53-2.14,2.68-2.79,1.14-.67,2.41-1.02,3.81-1.02s2.53.31,3.54.91c1.03.58,1.8,1.31,2.3,2.2v-2.89h2.63v15.7h-2.63v-2.89c-.54.9-1.33,1.65-2.36,2.25-1,.62-2.18.91-3.54.91s-2.67-.33-3.81-1.02c-1.11-.71-1.98-1.67-2.63-2.89-.64-1.25-.96-2.65-.96-4.23ZM685.28,199.81c0-1.18-.25-2.2-.75-3.06-.47-.88-1.11-1.57-1.93-2.04-.79-.46-1.69-.7-2.68-.7s-1.86.24-2.68.7c-.79.43-1.42,1.1-1.88,1.98-.47.9-.7,1.93-.7,3.11s.23,2.22.7,3.11c.46.9,1.09,1.58,1.88,2.04.82.47,1.72.7,2.68.7s1.89-.23,2.68-.7c.82-.46,1.46-1.14,1.93-2.04.5-.88.75-1.93.75-3.11Z"/><path class="cls-1" d="M695.45,194.12v9.27c0,.75.16,1.29.48,1.61.35.32.92.48,1.72.48h1.93v2.2h-2.36c-1.47,0-2.56-.32-3.27-.96-.72-.67-1.07-1.78-1.07-3.32v-9.27h-2.04v-2.14h2.04v-3.91h2.57v3.91h4.13v2.14h-4.13Z"/><path class="cls-1" d="M709.08,194.12h-3.27v13.56h-2.63v-13.56h-2.04v-2.14h2.04v-1.07c0-1.78.44-3.07,1.34-3.86.92-.82,2.39-1.23,4.4-1.23v2.2c-1.15,0-1.96.24-2.41.7-.47.43-.7,1.17-.7,2.2v1.07h3.27v2.14Z"/><path class="cls-1" d="M718.97,207.95c-1.47,0-2.81-.33-4.02-1.02-1.18-.67-2.12-1.62-2.79-2.84-.68-1.21-1.02-2.64-1.02-4.29s.33-3.01,1.02-4.23c.71-1.25,1.66-2.2,2.84-2.84,1.21-.64,2.57-.96,4.07-.96s2.84.32,4.02.96c1.21.64,2.16,1.59,2.84,2.84.71,1.22,1.07,2.63,1.07,4.23s-.36,3.08-1.07,4.29c-.72,1.22-1.7,2.17-2.95,2.84-1.22.68-2.56,1.02-4.02,1.02ZM718.97,205.65c.92,0,1.8-.21,2.63-.64.82-.43,1.47-1.09,1.98-1.98.5-.88.75-1.96.75-3.22s-.25-2.3-.75-3.16c-.51-.88-1.15-1.55-1.93-1.98-.79-.43-1.66-.64-2.63-.64s-1.81.21-2.63.64c-.79.43-1.42,1.1-1.88,1.98-.47.86-.7,1.92-.7,3.16s.23,2.39.7,3.27c.46.86,1.09,1.5,1.88,1.93.78.43,1.63.64,2.57.64Z"/><path class="cls-1" d="M733.05,194.55c.46-.88,1.1-1.58,1.93-2.09.86-.5,1.89-.75,3.11-.75v2.68h-.7c-2.89,0-4.34,1.59-4.34,4.77v8.52h-2.63v-15.7h2.63v2.57Z"/><path class="cls-1" d="M759.96,191.71c1.21,0,2.3.25,3.27.75.96.51,1.72,1.27,2.25,2.3.56,1,.86,2.24.86,3.7v9.22h-2.57v-8.9c0-1.53-.4-2.71-1.18-3.54-.79-.86-1.85-1.29-3.16-1.29s-2.44.46-3.22,1.34c-.79.86-1.18,2.12-1.18,3.75v8.63h-2.57v-8.9c0-1.53-.4-2.71-1.18-3.54-.79-.86-1.85-1.29-3.16-1.29s-2.4.46-3.22,1.34c-.79.86-1.18,2.12-1.18,3.75v8.63h-2.63v-15.7h2.63v2.3c.5-.82,1.18-1.45,2.04-1.88.88-.46,1.85-.7,2.89-.7,1.31,0,2.48.31,3.48.91,1.03.58,1.78,1.43,2.25,2.57.46-1.1,1.19-1.96,2.2-2.57.99-.6,2.12-.91,3.38-.91Z"/></svg>