<?xml version="1.0" encoding="UTF-8"?><svg id="Black_Syntra_Pin" xmlns="http://www.w3.org/2000/svg" viewBox="0 0 715.95 430.65"><defs><style>.cls-1{fill:#010101;fill-rule:evenodd;}</style></defs><path class="cls-1" d="M343.18,3.61c-54.44,7.53-114.01,51.92-137.15,102.2-45.31,98.45-3.51,204.38,97.27,246.52,11.13,4.66,22.26,9.79,24.73,11.41,8.77,5.74,10.09,3.79,10.61-15.76.57-21.3,1.07-20.64-22.15-29.05-83.42-30.19-123.88-121.17-86.91-195.44,11.32-22.73,15.18-26.93,10.76-11.69-24.4,84.1,14.63,153.3,96.85,171.74,9.4,2.11,17.78,4.91,18.61,6.22.83,1.32,1.53,27.32,1.54,57.8.02,48.13.37,55.76,2.65,58.04,3.76,3.75,16.06,3.42,20.99-.57l3.94-3.19.83-56.02c.95-63.43-.51-58.34,17.54-61.13,83.48-12.87,127.06-93.66,97.72-181.14-3.24-9.69.68-5.31,9.64,10.74,42.36,75.92,3.64,172.97-81.47,204.17-23.34,8.56-24.1,9.41-24.7,27.59-.58,17.85.65,20.41,8.34,17.33,3.03-1.22,13.2-5.06,22.6-8.54,152.59-56.54,162.56-261.09,16.3-334.51-29.88-14.99-73.02-21.65-108.55-16.73M390.77,51.56c87.74,15.92,124.06,114.04,64.4,173.96-24.06,24.17-69.41,41.99-69.41,27.28,0-8.24,2.64-11.14,12.84-14.1,102.71-29.86,80.05-169.48-27.52-169.48s-128.66,137.1-27.07,169.46c12.81,4.08,20.56,19.25,9.84,19.25-23.51,0-62.36-23.27-78.47-47-50.95-75.02,22.35-176.24,115.39-159.36M395.78,100.81c59.14,22.55,52.68,101.38-9.2,112.15-59.6,10.38-101.92-44.1-69.51-89.47,16.3-22.81,51.64-32.99,78.7-22.68"/></svg>